<svg width="1845" height="863" viewBox="0 0 1845 863" fill="none" xmlns="http://www.w3.org/2000/svg">
<g opacity="0.6">
<path d="M93.8243 802.717L105 802.717L105 773L75.2827 773L75.2827 784.091L93.8243 784.091L93.8243 802.717Z" fill="white"/>
<path d="M73.7597 822.781L84.8507 822.781L84.8507 793.064L55.2181 793.064L55.2181 804.239L73.7597 804.239L73.7597 822.781Z" fill="white"/>
<path d="M53.6062 842.849L64.7819 842.849L64.7819 813.216L35.0646 813.216L35.0646 824.307L53.6062 824.307L53.6062 842.849Z" fill="white"/>
<path d="M33.5416 862.998L44.7173 862.998L44.7173 833.281L15 833.281L15 844.456L33.5416 844.456L33.5416 862.998Z" fill="white"/>
</g>
<g opacity="0.4" clip-path="url(#clip0_3_2276)">
<path d="M1842.09 518C1770.73 518 1713 575.727 1713 647.089C1713 718.273 1770.73 776.177 1842.09 776.177C1913.27 776.177 1971.18 718.45 1971.18 647.089C1971 575.727 1913.27 518 1842.09 518ZM1842.09 767.855C1775.33 767.855 1721.32 713.846 1721.32 647.089C1721.32 580.331 1775.33 526.323 1842.09 526.323C1908.85 526.323 1962.85 580.331 1962.85 647.089C1962.85 713.669 1908.67 767.855 1842.09 767.855Z" fill="white"/>
<path d="M1842.09 545.8C1786.31 545.8 1740.98 591.131 1740.98 646.91C1740.98 702.689 1786.31 748.021 1842.09 748.021C1897.87 748.021 1943.2 702.866 1943.2 647.087C1943.2 591.131 1897.87 545.8 1842.09 545.8ZM1842.09 732.615C1794.81 732.615 1756.38 694.19 1756.38 646.91C1756.38 599.631 1794.81 561.205 1842.09 561.205C1889.37 561.205 1927.79 599.631 1927.79 646.91C1927.79 694.19 1889.37 732.615 1842.09 732.615Z" fill="white"/>
</g>
<g clip-path="url(#clip1_3_2276)">
<path d="M272.08 508.86C272.08 510.024 271.206 510.897 270.04 510.897C268.874 510.897 268 510.024 268 508.86C268 507.695 268.874 506.822 270.04 506.822C271.206 506.822 272.08 507.792 272.08 508.86Z" fill="white"/>
<path d="M289.469 508.86C289.469 510.024 288.595 510.897 287.429 510.897C286.264 510.897 285.389 510.024 285.389 508.86C285.389 507.695 286.264 506.822 287.429 506.822C288.498 506.822 289.469 507.792 289.469 508.86Z" fill="white"/>
<path d="M306.762 508.86C306.762 510.024 305.887 510.897 304.722 510.897C303.556 510.897 302.681 510.024 302.681 508.86C302.681 507.695 303.556 506.822 304.722 506.822C305.887 506.822 306.762 507.792 306.762 508.86Z" fill="white"/>
<path d="M324.151 508.86C324.151 510.024 323.277 510.897 322.111 510.897C320.945 510.897 320.071 510.024 320.071 508.86C320.071 507.695 320.945 506.822 322.111 506.822C323.277 506.822 324.151 507.792 324.151 508.86Z" fill="white"/>
<path d="M341.54 508.86C341.54 510.024 340.666 510.897 339.5 510.897C338.334 510.897 337.46 510.024 337.46 508.86C337.46 507.695 338.334 506.822 339.5 506.822C340.569 506.822 341.54 507.792 341.54 508.86Z" fill="white"/>
<path d="M358.929 508.86C358.929 510.024 358.055 510.897 356.889 510.897C355.724 510.897 354.849 510.024 354.849 508.86C354.849 507.695 355.724 506.822 356.889 506.822C358.055 506.822 358.929 507.792 358.929 508.86Z" fill="white"/>
<path d="M376.222 508.86C376.222 510.024 375.347 510.897 374.181 510.897C373.016 510.897 372.141 510.024 372.141 508.86C372.141 507.695 373.016 506.822 374.181 506.822C375.347 506.822 376.222 507.792 376.222 508.86Z" fill="white"/>
<path d="M393.611 508.86C393.611 510.024 392.736 510.897 391.571 510.897C390.405 510.897 389.531 510.024 389.531 508.86C389.531 507.695 390.405 506.822 391.571 506.822C392.736 506.822 393.611 507.792 393.611 508.86Z" fill="white"/>
<path d="M411 508.86C411 510.024 410.126 510.897 408.96 510.897C407.794 510.897 406.92 510.024 406.92 508.86C406.92 507.695 407.794 506.822 408.96 506.822C410.029 506.822 411 507.792 411 508.86Z" fill="white"/>
<path d="M272.08 523.319C272.08 524.483 271.206 525.357 270.04 525.357C268.874 525.357 268 524.483 268 523.319C268 522.154 268.874 521.281 270.04 521.281C271.206 521.281 272.08 522.154 272.08 523.319Z" fill="white"/>
<path d="M289.469 523.319C289.469 524.483 288.595 525.357 287.429 525.357C286.264 525.357 285.389 524.483 285.389 523.319C285.389 522.154 286.264 521.281 287.429 521.281C288.498 521.281 289.469 522.154 289.469 523.319Z" fill="white"/>
<path d="M306.762 523.319C306.762 524.483 305.887 525.357 304.722 525.357C303.556 525.357 302.681 524.483 302.681 523.319C302.681 522.154 303.556 521.281 304.722 521.281C305.887 521.281 306.762 522.154 306.762 523.319Z" fill="white"/>
<path d="M324.151 523.319C324.151 524.483 323.277 525.357 322.111 525.357C320.945 525.357 320.071 524.483 320.071 523.319C320.071 522.154 320.945 521.281 322.111 521.281C323.277 521.281 324.151 522.154 324.151 523.319Z" fill="white"/>
<path d="M341.54 523.319C341.54 524.483 340.666 525.357 339.5 525.357C338.334 525.357 337.46 524.483 337.46 523.319C337.46 522.154 338.334 521.281 339.5 521.281C340.569 521.281 341.54 522.154 341.54 523.319Z" fill="white"/>
<path d="M358.929 523.319C358.929 524.483 358.055 525.357 356.889 525.357C355.724 525.357 354.849 524.483 354.849 523.319C354.849 522.154 355.724 521.281 356.889 521.281C358.055 521.281 358.929 522.154 358.929 523.319Z" fill="white"/>
<path d="M376.222 523.319C376.222 524.483 375.347 525.357 374.181 525.357C373.016 525.357 372.141 524.483 372.141 523.319C372.141 522.154 373.016 521.281 374.181 521.281C375.347 521.281 376.222 522.154 376.222 523.319Z" fill="white"/>
<path d="M393.611 523.319C393.611 524.483 392.736 525.357 391.571 525.357C390.405 525.357 389.531 524.483 389.531 523.319C389.531 522.154 390.405 521.281 391.571 521.281C392.736 521.281 393.611 522.154 393.611 523.319Z" fill="white"/>
<path d="M411 523.319C411 524.483 410.126 525.357 408.96 525.357C407.794 525.357 406.92 524.483 406.92 523.319C406.92 522.154 407.794 521.281 408.96 521.281C410.029 521.281 411 522.154 411 523.319Z" fill="white"/>
<path d="M272.08 480.038C272.08 481.202 271.206 482.076 270.04 482.076C268.874 482.076 268 481.202 268 480.038C268 478.873 268.874 478 270.04 478C271.206 478 272.08 478.873 272.08 480.038Z" fill="white"/>
<path d="M289.469 480.038C289.469 481.202 288.595 482.076 287.429 482.076C286.264 482.076 285.389 481.202 285.389 480.038C285.389 478.873 286.264 478 287.429 478C288.498 478 289.469 478.873 289.469 480.038Z" fill="white"/>
<path d="M306.762 480.038C306.762 481.202 305.887 482.076 304.722 482.076C303.556 482.076 302.681 481.202 302.681 480.038C302.681 478.873 303.653 478 304.722 478C305.887 478 306.762 478.873 306.762 480.038Z" fill="white"/>
<path d="M324.151 480.038C324.151 481.202 323.277 482.076 322.111 482.076C320.945 482.076 320.071 481.202 320.071 480.038C320.071 478.873 321.042 478 322.111 478C323.179 478 324.151 478.873 324.151 480.038Z" fill="white"/>
<path d="M341.54 480.038C341.54 481.202 340.666 482.076 339.5 482.076C338.334 482.076 337.46 481.202 337.46 480.038C337.46 478.873 338.334 478 339.5 478C340.569 478 341.54 478.873 341.54 480.038Z" fill="white"/>
<path d="M358.929 480.038C358.929 481.202 358.055 482.076 356.889 482.076C355.724 482.076 354.849 481.202 354.849 480.038C354.849 478.873 355.724 478 356.889 478C358.055 478 358.929 478.873 358.929 480.038Z" fill="white"/>
<path d="M376.222 480.038C376.222 481.202 375.347 482.076 374.181 482.076C373.016 482.076 372.141 481.202 372.141 480.038C372.141 478.873 373.016 478 374.181 478C375.347 478 376.222 478.873 376.222 480.038Z" fill="white"/>
<path d="M393.611 480.038C393.611 481.202 392.736 482.076 391.571 482.076C390.405 482.076 389.531 481.202 389.531 480.038C389.531 478.873 390.405 478 391.571 478C392.736 478 393.611 478.873 393.611 480.038Z" fill="white"/>
<path d="M411 480.038C411 481.202 410.126 482.076 408.96 482.076C407.794 482.076 406.92 481.202 406.92 480.038C406.92 478.873 407.794 478 408.96 478C410.029 478 411 478.873 411 480.038Z" fill="white"/>
<path d="M272.08 494.497C272.08 495.662 271.206 496.535 270.04 496.535C268.874 496.535 268 495.565 268 494.497C268 493.333 268.874 492.459 270.04 492.459C271.206 492.459 272.08 493.333 272.08 494.497Z" fill="white"/>
<path d="M289.469 494.497C289.469 495.662 288.595 496.535 287.429 496.535C286.264 496.535 285.389 495.662 285.389 494.497C285.389 493.333 286.264 492.459 287.429 492.459C288.498 492.459 289.469 493.333 289.469 494.497Z" fill="white"/>
<path d="M306.762 494.497C306.762 495.662 305.887 496.535 304.722 496.535C303.556 496.535 302.681 495.662 302.681 494.497C302.681 493.333 303.556 492.459 304.722 492.459C305.887 492.459 306.762 493.333 306.762 494.497Z" fill="white"/>
<path d="M324.151 494.497C324.151 495.662 323.277 496.535 322.111 496.535C320.945 496.535 320.071 495.662 320.071 494.497C320.071 493.333 320.945 492.459 322.111 492.459C323.277 492.459 324.151 493.333 324.151 494.497Z" fill="white"/>
<path d="M341.54 494.497C341.54 495.662 340.666 496.535 339.5 496.535C338.334 496.535 337.46 495.662 337.46 494.497C337.46 493.333 338.334 492.459 339.5 492.459C340.569 492.459 341.54 493.333 341.54 494.497Z" fill="white"/>
<path d="M358.929 494.497C358.929 495.662 358.055 496.535 356.889 496.535C355.724 496.535 354.849 495.662 354.849 494.497C354.849 493.333 355.724 492.459 356.889 492.459C358.055 492.459 358.929 493.333 358.929 494.497Z" fill="white"/>
<path d="M376.222 494.497C376.222 495.662 375.347 496.535 374.181 496.535C373.016 496.535 372.141 495.662 372.141 494.497C372.141 493.333 373.016 492.459 374.181 492.459C375.347 492.459 376.222 493.333 376.222 494.497Z" fill="white"/>
<path d="M393.611 494.497C393.611 495.662 392.736 496.535 391.571 496.535C390.405 496.535 389.531 495.662 389.531 494.497C389.531 493.333 390.405 492.459 391.571 492.459C392.736 492.459 393.611 493.333 393.611 494.497Z" fill="white"/>
<path d="M411 494.497C411 495.662 410.126 496.535 408.96 496.535C407.794 496.535 406.92 495.662 406.92 494.497C406.92 493.333 407.794 492.459 408.96 492.459C410.029 492.459 411 493.333 411 494.497Z" fill="white"/>
<path d="M272.08 537.681C272.08 538.846 271.206 539.719 270.04 539.719C268.874 539.719 268 538.846 268 537.681C268 536.517 268.874 535.643 270.04 535.643C271.206 535.643 272.08 536.614 272.08 537.681Z" fill="white"/>
<path d="M289.469 537.681C289.469 538.846 288.595 539.719 287.429 539.719C286.264 539.719 285.389 538.846 285.389 537.681C285.389 536.517 286.264 535.643 287.429 535.643C288.498 535.643 289.469 536.614 289.469 537.681Z" fill="white"/>
<path d="M306.762 537.681C306.762 538.846 305.887 539.719 304.722 539.719C303.556 539.719 302.681 538.846 302.681 537.681C302.681 536.517 303.556 535.643 304.722 535.643C305.887 535.643 306.762 536.614 306.762 537.681Z" fill="white"/>
<path d="M324.151 537.681C324.151 538.846 323.277 539.719 322.111 539.719C320.945 539.719 320.071 538.846 320.071 537.681C320.071 536.517 320.945 535.643 322.111 535.643C323.277 535.643 324.151 536.614 324.151 537.681Z" fill="white"/>
<path d="M341.54 537.681C341.54 538.846 340.666 539.719 339.5 539.719C338.334 539.719 337.46 538.846 337.46 537.681C337.46 536.517 338.334 535.643 339.5 535.643C340.569 535.643 341.54 536.614 341.54 537.681Z" fill="white"/>
<path d="M358.929 537.681C358.929 538.846 358.055 539.719 356.889 539.719C355.724 539.719 354.849 538.846 354.849 537.681C354.849 536.517 355.724 535.643 356.889 535.643C358.055 535.643 358.929 536.614 358.929 537.681Z" fill="white"/>
<path d="M376.222 537.681C376.222 538.846 375.347 539.719 374.181 539.719C373.016 539.719 372.141 538.846 372.141 537.681C372.141 536.517 373.016 535.643 374.181 535.643C375.347 535.643 376.222 536.614 376.222 537.681Z" fill="white"/>
<path d="M393.611 537.681C393.611 538.846 392.736 539.719 391.571 539.719C390.405 539.719 389.531 538.846 389.531 537.681C389.531 536.517 390.405 535.643 391.571 535.643C392.736 535.643 393.611 536.614 393.611 537.681Z" fill="white"/>
<path d="M411 537.681C411 538.846 410.126 539.719 408.96 539.719C407.794 539.719 406.92 538.846 406.92 537.681C406.92 536.517 407.794 535.643 408.96 535.643C410.029 535.643 411 536.614 411 537.681Z" fill="white"/>
<path d="M272.08 552.14C272.08 553.305 271.206 554.178 270.04 554.178C268.874 554.178 268 553.305 268 552.14C268 550.976 268.874 550.102 270.04 550.102C271.206 550.102 272.08 550.976 272.08 552.14Z" fill="white"/>
<path d="M289.469 552.14C289.469 553.305 288.595 554.178 287.429 554.178C286.264 554.178 285.389 553.305 285.389 552.14C285.389 550.976 286.264 550.102 287.429 550.102C288.498 550.102 289.469 550.976 289.469 552.14Z" fill="white"/>
<path d="M306.762 552.14C306.762 553.305 305.887 554.178 304.722 554.178C303.556 554.178 302.681 553.305 302.681 552.14C302.681 550.976 303.556 550.102 304.722 550.102C305.887 550.102 306.762 550.976 306.762 552.14Z" fill="white"/>
<path d="M322.111 554.178C323.237 554.178 324.151 553.266 324.151 552.14C324.151 551.015 323.237 550.102 322.111 550.102C320.984 550.102 320.071 551.015 320.071 552.14C320.071 553.266 320.984 554.178 322.111 554.178Z" fill="white"/>
<path d="M341.54 552.14C341.54 553.305 340.666 554.178 339.5 554.178C338.334 554.178 337.46 553.305 337.46 552.14C337.46 550.976 338.334 550.102 339.5 550.102C340.569 550.102 341.54 550.976 341.54 552.14Z" fill="white"/>
<path d="M358.929 552.14C358.929 553.305 358.055 554.178 356.889 554.178C355.724 554.178 354.849 553.305 354.849 552.14C354.849 550.976 355.724 550.102 356.889 550.102C358.055 550.102 358.929 550.976 358.929 552.14Z" fill="white"/>
<path d="M376.222 552.14C376.222 553.305 375.347 554.178 374.181 554.178C373.016 554.178 372.141 553.305 372.141 552.14C372.141 550.976 373.016 550.102 374.181 550.102C375.347 550.102 376.222 550.976 376.222 552.14Z" fill="white"/>
<path d="M391.571 554.178C392.697 554.178 393.611 553.266 393.611 552.14C393.611 551.015 392.697 550.102 391.571 550.102C390.444 550.102 389.531 551.015 389.531 552.14C389.531 553.266 390.444 554.178 391.571 554.178Z" fill="white"/>
<path d="M411 552.14C411 553.305 410.126 554.178 408.96 554.178C407.794 554.178 406.92 553.305 406.92 552.14C406.92 550.976 407.794 550.102 408.96 550.102C410.029 550.102 411 550.976 411 552.14Z" fill="white"/>
<path d="M272.08 566.6C272.08 567.764 271.206 568.638 270.04 568.638C268.874 568.638 268 567.764 268 566.6C268 565.435 268.874 564.562 270.04 564.562C271.206 564.562 272.08 565.435 272.08 566.6Z" fill="white"/>
<path d="M289.469 566.6C289.469 567.764 288.595 568.638 287.429 568.638C286.264 568.638 285.389 567.764 285.389 566.6C285.389 565.435 286.264 564.562 287.429 564.562C288.498 564.562 289.469 565.435 289.469 566.6Z" fill="white"/>
<path d="M306.762 566.6C306.762 567.764 305.887 568.638 304.722 568.638C303.556 568.638 302.681 567.764 302.681 566.6C302.681 565.435 303.556 564.562 304.722 564.562C305.887 564.562 306.762 565.435 306.762 566.6Z" fill="white"/>
<path d="M324.151 566.6C324.151 567.764 323.277 568.638 322.111 568.638C320.945 568.638 320.071 567.764 320.071 566.6C320.071 565.435 320.945 564.562 322.111 564.562C323.277 564.562 324.151 565.435 324.151 566.6Z" fill="white"/>
<path d="M341.54 566.6C341.54 567.764 340.666 568.638 339.5 568.638C338.334 568.638 337.46 567.764 337.46 566.6C337.46 565.435 338.334 564.562 339.5 564.562C340.569 564.562 341.54 565.435 341.54 566.6Z" fill="white"/>
<path d="M358.929 566.6C358.929 567.764 358.055 568.638 356.889 568.638C355.724 568.638 354.849 567.764 354.849 566.6C354.849 565.435 355.724 564.562 356.889 564.562C358.055 564.562 358.929 565.435 358.929 566.6Z" fill="white"/>
<path d="M376.222 566.6C376.222 567.764 375.347 568.638 374.181 568.638C373.016 568.638 372.141 567.764 372.141 566.6C372.141 565.435 373.016 564.562 374.181 564.562C375.347 564.562 376.222 565.435 376.222 566.6Z" fill="white"/>
<path d="M393.611 566.6C393.611 567.764 392.736 568.638 391.571 568.638C390.405 568.638 389.531 567.764 389.531 566.6C389.531 565.435 390.405 564.562 391.571 564.562C392.736 564.562 393.611 565.435 393.611 566.6Z" fill="white"/>
<path d="M411 566.6C411 567.764 410.126 568.638 408.96 568.638C407.794 568.638 406.92 567.764 406.92 566.6C406.92 565.435 407.794 564.562 408.96 564.562C410.029 564.562 411 565.435 411 566.6Z" fill="white"/>
<path d="M272.08 580.962C272.08 582.127 271.206 583 270.04 583C268.874 583 268 582.127 268 580.962C268 579.798 268.874 578.924 270.04 578.924C271.206 578.924 272.08 579.895 272.08 580.962Z" fill="white"/>
<path d="M289.469 580.962C289.469 582.127 288.595 583 287.429 583C286.264 583 285.389 582.127 285.389 580.962C285.389 579.798 286.264 578.924 287.429 578.924C288.498 578.924 289.469 579.895 289.469 580.962Z" fill="white"/>
<path d="M306.762 580.962C306.762 582.127 305.887 583 304.722 583C303.556 583 302.681 582.127 302.681 580.962C302.681 579.798 303.556 578.924 304.722 578.924C305.887 578.924 306.762 579.895 306.762 580.962Z" fill="white"/>
<path d="M324.151 580.962C324.151 582.127 323.277 583 322.111 583C320.945 583 320.071 582.127 320.071 580.962C320.071 579.798 320.945 578.924 322.111 578.924C323.277 578.924 324.151 579.895 324.151 580.962Z" fill="white"/>
<path d="M341.54 580.962C341.54 582.127 340.666 583 339.5 583C338.334 583 337.46 582.127 337.46 580.962C337.46 579.798 338.334 578.924 339.5 578.924C340.569 578.924 341.54 579.895 341.54 580.962Z" fill="white"/>
<path d="M358.929 580.962C358.929 582.127 358.055 583 356.889 583C355.724 583 354.849 582.127 354.849 580.962C354.849 579.798 355.724 578.924 356.889 578.924C358.055 578.924 358.929 579.895 358.929 580.962Z" fill="white"/>
<path d="M376.222 580.962C376.222 582.127 375.347 583 374.181 583C373.016 583 372.141 582.127 372.141 580.962C372.141 579.798 373.016 578.924 374.181 578.924C375.347 578.924 376.222 579.895 376.222 580.962Z" fill="white"/>
<path d="M393.611 580.962C393.611 582.127 392.736 583 391.571 583C390.405 583 389.531 582.127 389.531 580.962C389.531 579.798 390.405 578.924 391.571 578.924C392.736 578.924 393.611 579.895 393.611 580.962Z" fill="white"/>
<path d="M411 580.962C411 582.127 410.126 583 408.96 583C407.794 583 406.92 582.127 406.92 580.962C406.92 579.798 407.794 578.924 408.96 578.924C410.029 578.924 411 579.895 411 580.962Z" fill="white"/>
</g>
<g opacity="0.6">
<path d="M1172.83 101.225C1183.29 101.225 1191.8 92.6349 1191.8 82.0897C1191.8 71.5446 1183.29 62.9545 1172.83 62.9545L1172.83 101.225Z" fill="white"/>
<path d="M1143.24 101.225C1153.7 101.225 1162.21 92.6349 1162.21 82.0897C1162.21 71.5446 1153.7 62.9545 1143.24 62.9545L1143.24 101.225Z" fill="white"/>
<path d="M1113.65 101.225C1124.1 101.225 1132.62 92.6349 1132.62 82.0897C1132.62 71.5446 1124.1 62.9545 1113.65 62.9545L1113.65 101.225Z" fill="white"/>
</g>
<g opacity="0.6" clip-path="url(#clip2_3_2276)">
<path d="M57.5395 0C25.731 0 0 25.731 0 57.5395C0 89.2691 25.731 115.079 57.5395 115.079C89.2691 115.079 115.079 89.348 115.079 57.5395C115 25.731 89.2691 0 57.5395 0ZM57.5395 111.369C27.7831 111.369 3.70968 87.2958 3.70968 57.5395C3.70968 27.7831 27.7831 3.70968 57.5395 3.70968C87.2958 3.70968 111.369 27.7831 111.369 57.5395C111.369 87.2169 87.2169 111.369 57.5395 111.369Z" fill="white"/>
<path d="M57.5394 12.3916C32.6767 12.3916 12.4708 32.5975 12.4708 57.4602C12.4708 82.323 32.6767 102.529 57.5394 102.529C82.4022 102.529 102.608 82.4019 102.608 57.5392C102.608 32.5975 82.4022 12.3916 57.5394 12.3916ZM57.5394 95.662C36.4653 95.662 19.3376 78.5344 19.3376 57.4602C19.3376 36.3861 36.4653 19.2585 57.5394 19.2585C78.6135 19.2585 95.7412 36.3861 95.7412 57.4602C95.7412 78.5344 78.6135 95.662 57.5394 95.662Z" fill="white"/>
<path d="M57.5398 32.2028C43.5693 32.2028 32.2035 43.5686 32.2035 57.5391C32.2035 71.5096 43.4904 82.8754 57.5398 82.8754C71.5103 82.8754 82.8761 71.5096 82.8761 57.5391C82.7972 43.5686 71.5103 32.2028 57.5398 32.2028ZM57.5398 71.1149C50.0415 71.1149 43.964 65.0374 43.964 57.5391C43.964 50.0408 50.0415 43.9633 57.5398 43.9633C65.0381 43.9633 71.1156 50.0408 71.1156 57.5391C71.1156 65.0374 65.0381 71.1149 57.5398 71.1149Z" fill="white"/>
</g>
<defs>
<clipPath id="clip0_3_2276">
<rect width="258" height="258" fill="white" transform="translate(1713 518)"/>
</clipPath>
<clipPath id="clip1_3_2276">
<rect width="143" height="105" fill="white" transform="translate(268 478)"/>
</clipPath>
<clipPath id="clip2_3_2276">
<rect width="115" height="115" fill="white"/>
</clipPath>
</defs>
</svg>
