<svg width="16" height="17" viewBox="0 0 16 17" fill="none" xmlns="http://www.w3.org/2000/svg">
<path fill-rule="evenodd" clip-rule="evenodd" d="M5.33337 9.49992C5.33337 9.13173 5.63185 8.83325 6.00004 8.83325H10C10.3682 8.83325 10.6667 9.13173 10.6667 9.49992C10.6667 9.86811 10.3682 10.1666 10 10.1666H6.00004C5.63185 10.1666 5.33337 9.86811 5.33337 9.49992Z" fill="#424551"/>
<path fill-rule="evenodd" clip-rule="evenodd" d="M5.33337 11.9999C5.33337 11.6317 5.63185 11.3333 6.00004 11.3333H8.00004C8.36823 11.3333 8.66671 11.6317 8.66671 11.9999C8.66671 12.3681 8.36823 12.6666 8.00004 12.6666H6.00004C5.63185 12.6666 5.33337 12.3681 5.33337 11.9999Z" fill="#424551"/>
<path fill-rule="evenodd" clip-rule="evenodd" d="M6.02865 1.52851C6.15368 1.40349 6.32325 1.33325 6.50006 1.33325H11.0001C12.4728 1.33325 13.6667 2.52716 13.6667 3.99992L13.6667 12.9999C13.6667 14.4727 12.4728 15.6666 11.0001 15.6666H5.00004C3.52728 15.6666 2.33337 14.4727 2.33337 12.9999L2.33339 5.49992C2.33339 5.32311 2.40363 5.15354 2.52865 5.02851L6.02865 1.52851ZM6.33337 3.10942V5.33325H4.10953L6.33337 3.10942ZM3.66672 6.66659L3.66671 12.9999C3.66671 13.7363 4.26366 14.3333 5.00004 14.3333H11.0001C11.7364 14.3333 12.3334 13.7363 12.3334 12.9999L12.3334 3.99992C12.3334 3.26354 11.7364 2.66659 11.0001 2.66659H7.6667V5.99992C7.6667 6.36811 7.36823 6.66659 7.00004 6.66659H3.66672Z" fill="#424551"/>
</svg>
