<svg width="16" height="17" viewBox="0 0 16 17" fill="none" xmlns="http://www.w3.org/2000/svg">
<path d="M8.66663 4.83341C8.66663 4.46522 8.36815 4.16675 7.99996 4.16675C7.63177 4.16675 7.33329 4.46522 7.33329 4.83341V8.50008C7.33329 8.67689 7.40353 8.84646 7.52855 8.97149L9.52855 10.9715C9.7889 11.2318 10.211 11.2318 10.4714 10.9715C10.7317 10.7111 10.7317 10.289 10.4714 10.0287L8.66663 8.22394V4.83341Z" fill="#787A80"/>
<path fill-rule="evenodd" clip-rule="evenodd" d="M7.99996 1.16675C3.94987 1.16675 0.666626 4.44999 0.666626 8.50008C0.666626 12.5502 3.94987 15.8334 7.99996 15.8334C12.05 15.8334 15.3333 12.5502 15.3333 8.50008C15.3333 4.44999 12.05 1.16675 7.99996 1.16675ZM1.99996 8.50008C1.99996 5.18637 4.68625 2.50008 7.99996 2.50008C11.3137 2.50008 14 5.18637 14 8.50008C14 11.8138 11.3137 14.5001 7.99996 14.5001C4.68625 14.5001 1.99996 11.8138 1.99996 8.50008Z" fill="#787A80"/>
</svg>
