<svg width="16" height="14" viewBox="0 0 16 14" fill="none" xmlns="http://www.w3.org/2000/svg">
<path fill-rule="evenodd" clip-rule="evenodd" d="M7.99974 12.2717C4.9337 10.5255 3.22366 8.7898 2.39675 7.28385C1.55041 5.74252 1.62425 4.44434 2.09389 3.52298C3.05921 1.62916 5.80427 1.02357 7.47678 3.13889L7.9997 3.80026L8.52266 3.13893C10.1955 1.02352 12.9407 1.6292 13.906 3.52298C14.3756 4.44433 14.4494 5.7425 13.603 7.28384C12.776 8.78979 11.0659 10.5255 7.99974 12.2717ZM7.99977 1.7375C5.64696 -0.498237 2.17604 0.42579 0.905976 2.91747C0.208948 4.28495 0.199427 6.05236 1.22802 7.9256C2.24749 9.78222 4.28009 11.7419 7.67724 13.6196L7.99973 13.7979L8.32222 13.6196C11.7195 11.742 13.7522 9.78223 14.7717 7.92562C15.8004 6.05239 15.7909 4.28496 15.0939 2.91747C13.8238 0.425742 10.3528 -0.498204 7.99977 1.7375Z" fill="#FF3F3A"/>
</svg>
