<svg width="16" height="16" viewBox="0 0 16 16" fill="none" xmlns="http://www.w3.org/2000/svg">
<path fill-rule="evenodd" clip-rule="evenodd" d="M15.1666 12.0001V4.66675C15.1666 3.56218 14.2712 2.66675 13.1666 2.66675L2.83331 2.66676C1.72874 2.66676 0.833313 3.56219 0.833313 4.66676V12.0001C0.833313 13.1046 1.72874 14.0001 2.83331 14.0001L13.1666 14.0001C14.2712 14.0001 15.1666 13.1046 15.1666 12.0001ZM13.8333 6.17306V12.0001C13.8333 12.3683 13.5348 12.6667 13.1666 12.6667L2.83331 12.6667C2.46512 12.6667 2.16665 12.3683 2.16665 12.0001L2.16665 6.17297L6.87542 9.37494C7.55414 9.83647 8.44595 9.83647 9.12466 9.37494L13.8333 6.17306ZM13.8257 4.56582C13.7771 4.24552 13.5005 4.00008 13.1666 4.00008L2.83331 4.00009C2.49946 4.00009 2.22293 4.24549 2.17425 4.56574L7.62517 8.27237C7.85141 8.42621 8.14868 8.42621 8.37492 8.27237L13.8257 4.56582Z" fill="white"/>
</svg>
