<svg width="16" height="17" viewBox="0 0 16 17" fill="none" xmlns="http://www.w3.org/2000/svg">
<path fill-rule="evenodd" clip-rule="evenodd" d="M10.7118 7.44076C11.41 7.97441 11.4101 9.0258 10.7118 9.55946L7.65853 11.8931C6.78113 12.5637 5.51554 11.938 5.51553 10.8337V6.16648C5.51553 5.06217 6.78113 4.43654 7.65853 5.10713L10.7118 7.44076ZM9.90216 8.50011L6.84887 6.16648L6.84887 10.8337L9.90216 8.50011Z" fill="#424551"/>
<path fill-rule="evenodd" clip-rule="evenodd" d="M7.99996 2.50008C4.68625 2.50008 1.99996 5.18637 1.99996 8.50008C1.99996 11.8138 4.68625 14.5001 7.99996 14.5001C11.3137 14.5001 14 11.8138 14 8.50008C14 5.18637 11.3137 2.50008 7.99996 2.50008ZM0.666626 8.50008C0.666626 4.44999 3.94987 1.16675 7.99996 1.16675C12.05 1.16675 15.3333 4.44999 15.3333 8.50008C15.3333 12.5502 12.05 15.8334 7.99996 15.8334C3.94987 15.8334 0.666626 12.5502 0.666626 8.50008Z" fill="#424551"/>
</svg>
