<svg width="18" height="18" viewBox="0 0 18 18" fill="none" xmlns="http://www.w3.org/2000/svg">
<path fill-rule="evenodd" clip-rule="evenodd" d="M9.0002 1.70817C7.38937 1.70817 6.08353 3.01401 6.08353 4.62484C6.08353 6.23567 7.38937 7.5415 9.0002 7.5415C10.611 7.5415 11.9169 6.23567 11.9169 4.62484C11.9169 3.01401 10.611 1.70817 9.0002 1.70817ZM4.41686 4.62484C4.41686 2.09353 6.46889 0.0415039 9.0002 0.0415039C11.5315 0.0415039 13.5835 2.09353 13.5835 4.62484C13.5835 7.15614 11.5315 9.20817 9.0002 9.20817C6.46889 9.20817 4.41686 7.15614 4.41686 4.62484Z" fill="#424551"/>
<path fill-rule="evenodd" clip-rule="evenodd" d="M4.08691 11.7082C3.50914 11.7082 3.05756 11.9895 2.87424 12.3937C2.62053 12.9531 2.39078 13.6192 2.33656 14.2508C2.31233 14.5332 2.43007 14.7413 2.5923 14.8421C3.44993 15.3748 5.43719 16.2915 9.00019 16.2915C12.5632 16.2915 14.5505 15.3748 15.4081 14.8421C15.5703 14.7413 15.6881 14.5332 15.6638 14.2508C15.6096 13.6192 15.3799 12.9531 15.1261 12.3937C14.9428 11.9895 14.4912 11.7082 13.9135 11.7082H4.08691ZM1.35639 11.7053C1.86301 10.5882 2.99429 10.0415 4.08691 10.0415H13.9135C15.0061 10.0415 16.1374 10.5882 16.644 11.7053C16.935 12.3469 17.2472 13.2094 17.3244 14.1083C17.3946 14.9268 17.0544 15.7814 16.2876 16.2578C15.1596 16.9585 12.8665 17.9582 9.00019 17.9582C5.13386 17.9582 2.84078 16.9585 1.71283 16.2578C0.945947 15.7814 0.605747 14.9268 0.676001 14.1083C0.753149 13.2094 1.0654 12.3469 1.35639 11.7053Z" fill="#424551"/>
</svg>
