<svg width="443" height="489" viewBox="0 0 443 489" fill="none" xmlns="http://www.w3.org/2000/svg">
<g filter="url(#filter0_d_1_1322)">
<path fill-rule="evenodd" clip-rule="evenodd" d="M53.4341 468.667H319.043V469.9H53.4341V468.667Z" fill="#3FB1B5"/>
<path fill-rule="evenodd" clip-rule="evenodd" d="M300.443 481H8.08301V480.046H300.443V481Z" fill="#66B0F0"/>
<path d="M299.153 4.92139V52.7707C299.153 62.1416 291.508 69.754 282.097 69.754H228.816C238.227 69.754 245.872 62.1647 245.872 52.7707V4.92139H299.153Z" fill="white"/>
<path fill-rule="evenodd" clip-rule="evenodd" d="M245.291 4.34302H299.733V52.7708C299.733 62.4612 291.829 70.3326 282.097 70.3326H228.816V69.1757C237.907 69.1757 245.291 61.8449 245.291 52.7708V4.34302ZM235.126 69.1757H282.097C291.187 69.1757 298.572 61.8223 298.572 52.7708V5.49992H246.453V52.7708C246.453 60.2662 241.746 66.6504 235.126 69.1757Z" fill="#66B0F0"/>
<path d="M274.545 0.293945H270.246V10.4978H274.545V0.293945Z" fill="#FFCF2D"/>
<path d="M283.655 23.1084C283.05 23.1084 282.446 22.877 281.958 22.4374L280.169 20.864C279.612 20.3781 278.868 20.3781 278.31 20.864L276.614 22.368C275.615 23.2472 274.221 23.2472 273.198 22.368L271.641 21.0028C271.084 20.5169 270.34 20.5169 269.783 21.0028L268.342 22.2754C267.343 23.1547 265.949 23.1547 264.926 22.2754L263.741 21.2342C263.184 20.7483 262.44 20.7483 261.882 21.2342L260.604 22.368C259.605 23.2472 258.211 23.2472 257.189 22.368L256.004 21.3268C255.446 20.8409 254.702 20.8409 254.145 21.3268C253.912 21.535 253.54 21.5119 253.331 21.2805C253.122 21.0491 253.145 20.6789 253.378 20.4707C254.377 19.5914 255.771 19.5914 256.794 20.4707L257.979 21.5119C258.536 21.9978 259.28 21.9978 259.837 21.5119L261.115 20.3781C262.115 19.4989 263.509 19.4989 264.531 20.3781L265.716 21.4193C266.274 21.9052 267.017 21.9052 267.575 21.4193L269.016 20.1467C270.015 19.2675 271.409 19.2675 272.432 20.1467L273.988 21.5119C274.546 21.9978 275.29 21.9978 275.847 21.5119L277.544 20.0079C278.543 19.1287 279.937 19.1287 280.959 20.0079L282.748 21.5813C283.306 22.0672 284.05 22.0672 284.607 21.5813L286.466 19.9385C287.465 19.0592 288.86 19.0592 289.882 19.9385C290.114 20.1467 290.138 20.5169 289.928 20.7483C289.719 20.9797 289.347 21.0028 289.115 20.7946C288.557 20.3087 287.814 20.3087 287.256 20.7946L285.397 22.4374C284.84 22.877 284.259 23.1084 283.655 23.1084Z" fill="#66B0F0"/>
<path d="M283.655 32.6176C283.05 32.6176 282.446 32.3863 281.958 31.9466L280.169 30.3733C279.612 29.8874 278.868 29.8874 278.31 30.3733L276.614 31.8772C275.615 32.7565 274.221 32.7565 273.198 31.8772L271.641 30.5121C271.084 30.0262 270.34 30.0262 269.783 30.5121L268.342 31.7847C267.343 32.6639 265.949 32.6639 264.926 31.7847L263.741 30.7435C263.184 30.2576 262.44 30.2576 261.882 30.7435L260.604 31.8772C259.605 32.7565 258.211 32.7565 257.189 31.8772L256.004 30.836C255.446 30.3501 254.702 30.3501 254.145 30.836C253.912 31.0443 253.54 31.0211 253.331 30.7897C253.122 30.5584 253.145 30.1882 253.378 29.9799C254.377 29.1007 255.771 29.1007 256.794 29.9799L257.979 31.0211C258.536 31.507 259.28 31.507 259.837 31.0211L261.115 29.8874C262.115 29.0081 263.509 29.0081 264.531 29.8874L265.716 30.9286C266.274 31.4145 267.017 31.4145 267.575 30.9286L269.016 29.656C270.015 28.7768 271.409 28.7768 272.432 29.656L273.988 31.0211C274.546 31.507 275.29 31.507 275.847 31.0211L277.544 29.5172C278.543 28.6379 279.937 28.6379 280.959 29.5172L282.748 31.0905C283.306 31.5764 284.05 31.5764 284.607 31.0905L286.466 29.4478C287.465 28.5685 288.86 28.5685 289.882 29.4478C290.114 29.656 290.138 30.0262 289.928 30.2576C289.719 30.489 289.347 30.5121 289.115 30.3039C288.557 29.818 287.814 29.818 287.256 30.3039L285.397 31.9466C284.84 32.4094 284.259 32.6176 283.655 32.6176Z" fill="#66B0F0"/>
<path d="M283.655 42.1272C283.05 42.1272 282.446 41.8958 281.958 41.4562L280.169 39.8828C279.612 39.3969 278.868 39.3969 278.31 39.8828L276.614 41.3868C275.615 42.266 274.221 42.266 273.198 41.3868L271.641 40.0216C271.084 39.5357 270.34 39.5357 269.783 40.0216L268.342 41.2942C267.343 42.1734 265.949 42.1734 264.926 41.2942L263.741 40.253C263.184 39.7671 262.44 39.7671 261.882 40.253L260.604 41.3868C259.605 42.266 258.211 42.266 257.189 41.3868L256.004 40.3456C255.446 39.8597 254.702 39.8597 254.145 40.3456C253.912 40.5538 253.54 40.5307 253.331 40.2993C253.122 40.0679 253.145 39.6977 253.378 39.4895C254.377 38.6102 255.771 38.6102 256.794 39.4895L257.979 40.5307C258.536 41.0166 259.28 41.0166 259.837 40.5307L261.115 39.3969C262.115 38.5177 263.509 38.5177 264.531 39.3969L265.716 40.4381C266.274 40.924 267.017 40.924 267.575 40.4381L269.016 39.1655C270.015 38.2863 271.409 38.2863 272.432 39.1655L273.988 40.5307C274.546 41.0166 275.29 41.0166 275.847 40.5307L277.544 39.0267C278.543 38.1475 279.937 38.1475 280.959 39.0267L282.748 40.6001C283.306 41.086 284.05 41.086 284.607 40.6001L286.466 38.9573C287.465 38.078 288.86 38.078 289.882 38.9573C290.114 39.1655 290.138 39.5357 289.928 39.7671C289.719 39.9985 289.347 40.0216 289.115 39.8134C288.557 39.3275 287.814 39.3275 287.256 39.8134L285.397 41.4562C284.84 41.9189 284.259 42.1272 283.655 42.1272Z" fill="#66B0F0"/>
<path d="M283.655 51.6597C283.05 51.6597 282.446 51.4283 281.958 50.9887L280.169 49.4153C279.612 48.9294 278.868 48.9294 278.31 49.4153L276.614 50.9192C275.615 51.7985 274.221 51.7985 273.198 50.9192L271.641 49.5541C271.084 49.0682 270.34 49.0682 269.783 49.5541L268.342 50.8267C267.343 51.7059 265.949 51.7059 264.926 50.8267L263.741 49.7855C263.184 49.2996 262.44 49.2996 261.882 49.7855L260.604 50.9192C259.605 51.7985 258.211 51.7985 257.189 50.9192L256.004 49.878C255.446 49.3921 254.702 49.3921 254.145 49.878C253.912 50.0863 253.54 50.0631 253.331 49.8318C253.122 49.6004 253.145 49.2302 253.378 49.0219C254.377 48.1427 255.771 48.1427 256.794 49.0219L257.979 50.0631C258.536 50.549 259.28 50.549 259.837 50.0631L261.115 48.9294C262.115 48.0501 263.509 48.0501 264.531 48.9294L265.716 49.9706C266.274 50.4565 267.017 50.4565 267.575 49.9706L269.016 48.698C270.015 47.8188 271.409 47.8188 272.432 48.698L273.988 50.0631C274.546 50.549 275.29 50.549 275.847 50.0631L277.544 48.5592C278.543 47.6799 279.937 47.6799 280.959 48.5592L282.748 50.1326C283.306 50.6185 284.05 50.6185 284.607 50.1326L286.466 48.4898C287.465 47.6105 288.86 47.6105 289.882 48.4898C290.114 48.698 290.138 49.0682 289.928 49.2996C289.719 49.531 289.347 49.5541 289.115 49.3459C288.557 48.86 287.814 48.86 287.256 49.3459L285.397 50.9887C284.84 51.4283 284.259 51.6597 283.655 51.6597Z" fill="#66B0F0"/>
<path d="M354.012 4.92041H316.741V42.0338H354.012V4.92041Z" fill="#FFCF2D"/>
<path d="M324.931 3.33703L322.232 0.00463867L312.391 7.94231L315.09 11.2747L324.931 3.33703Z" fill="#FE5244"/>
<path d="M355.945 11.2562L358.647 7.92676L348.797 -2.5395e-05L346.095 3.32937L355.945 11.2562Z" fill="#FE5244"/>
<path d="M346.135 13.7139H323.526V15.1022H346.135V13.7139Z" fill="white"/>
<path d="M346.135 19.7061H323.526V21.0943H346.135V19.7061Z" fill="white"/>
<path d="M346.135 25.7217H323.526V27.1099H346.135V25.7217Z" fill="white"/>
<path d="M346.135 31.7153H323.526V33.1036H346.135V31.7153Z" fill="white"/>
<path d="M382.457 404.178C381.917 404.019 381.618 403.94 381.618 403.94L375.085 425.244L350.494 418.819C350.295 418.64 350.195 418.54 350.195 418.54C350.195 418.54 250.612 340.822 245.378 303.525C240.164 266.227 281.875 230.839 281.875 230.839C281.875 230.839 370.83 398.27 381.837 403.741C382.057 403.86 382.277 403.999 382.457 404.178Z" fill="#E57281"/>
<path d="M302.931 270.007C299.814 286.617 288.867 320.254 277.541 352.797C260.76 334.795 247.216 316.634 245.378 303.505C242.062 279.873 257.624 256.977 269.45 243.411C273.785 239.95 278.459 236.767 283.513 233.923C286.61 239.711 293.781 253.118 302.931 270.007Z" fill="#9A3B82"/>
<path d="M438.351 418.52L401.774 441.894L391.166 440.302L381.398 446.469L384.554 452.914L368.473 463.198C347.158 443.883 350.174 418.759 350.174 418.759L375.065 425.264L381.597 403.959C381.597 403.959 403.951 410.464 420.452 409.907C436.992 409.35 438.351 418.52 438.351 418.52Z" fill="white"/>
<path fill-rule="evenodd" clip-rule="evenodd" d="M381.197 403.222L381.765 403.387L381.597 403.96C381.765 403.387 381.765 403.387 381.765 403.387L381.781 403.392L381.828 403.405C381.87 403.417 381.933 403.435 382.016 403.459C382.183 403.506 382.429 403.575 382.749 403.663C383.39 403.839 384.324 404.09 385.497 404.39C387.843 404.989 391.143 405.782 394.957 406.558C402.595 408.112 412.253 409.587 420.431 409.311C428.816 409.029 433.46 411.212 436.011 413.568C437.281 414.741 438.012 415.938 438.426 416.851C438.633 417.308 438.761 417.693 438.838 417.969C438.876 418.107 438.902 418.218 438.918 418.297C438.926 418.336 438.932 418.368 438.936 418.391C438.938 418.402 438.94 418.412 438.941 418.419L438.943 418.428L438.943 418.431L438.943 418.433C438.943 418.433 438.944 418.434 438.351 418.521L438.944 418.434L439 418.815L401.907 442.518L391.298 440.926L382.171 446.687L385.326 453.13L368.41 463.948L368.069 463.64C357.3 453.881 352.675 442.65 350.745 433.863C349.78 429.471 349.488 425.687 349.437 422.998C349.411 421.654 349.446 420.582 349.488 419.844C349.509 419.474 349.531 419.189 349.549 418.994C349.557 418.896 349.565 418.821 349.57 418.77C349.573 418.745 349.575 418.725 349.577 418.711L349.578 418.696L349.579 418.691L349.579 418.69C349.579 418.689 349.579 418.689 350.174 418.76L349.579 418.689L349.661 418.009L374.66 424.542L381.197 403.222ZM350.71 419.517C350.701 419.634 350.693 419.765 350.685 419.91C350.645 420.622 350.61 421.663 350.635 422.976C350.685 425.601 350.971 429.305 351.916 433.608C353.786 442.12 358.234 452.965 368.538 462.448L383.782 452.699L380.624 446.251L391.034 439.679L401.64 441.271L437.671 418.246C437.607 418.025 437.502 417.714 437.334 417.342C436.976 416.554 436.334 415.493 435.196 414.443C432.933 412.353 428.627 410.23 420.472 410.504C412.15 410.785 402.381 409.287 394.717 407.728C390.88 406.947 387.56 406.149 385.199 405.546C384.018 405.244 383.077 404.991 382.431 404.814C382.268 404.769 382.124 404.729 381.999 404.694L375.47 425.987L350.71 419.517Z" fill="#FE5244"/>
<path fill-rule="evenodd" clip-rule="evenodd" d="M397.299 406.023C397.249 405.579 397.174 404.954 397.073 404.21C396.867 402.699 396.552 400.689 396.114 398.707C395.678 396.735 395.112 394.747 394.392 393.304C394.033 392.586 393.613 391.954 393.111 391.531C392.59 391.093 391.949 390.861 391.233 391.05L391.231 391.05L391.23 391.05C390.515 391.242 390.052 391.78 389.778 392.426C389.507 393.063 389.392 393.858 389.381 394.713C389.358 396.429 389.754 398.556 390.401 400.568C391.047 402.579 391.964 404.536 393.026 405.893C393.555 406.57 394.149 407.134 394.796 407.463C395.461 407.801 396.195 407.894 396.927 407.595C398.164 407.09 399.328 405.934 400.359 404.588C401.404 403.226 402.37 401.592 403.191 400.032C404.013 398.469 404.697 396.964 405.175 395.851C405.415 395.294 405.603 394.834 405.731 394.512C405.796 394.352 405.845 394.226 405.879 394.139C405.895 394.096 405.908 394.063 405.917 394.04L405.927 394.014L405.93 394.006L405.93 394.005C405.93 394.005 405.93 394.005 405.369 393.795C404.808 393.585 404.808 393.585 404.808 393.585L404.808 393.585L404.808 393.586L404.806 393.592L404.797 393.615C404.789 393.636 404.777 393.668 404.761 393.709C404.729 393.792 404.681 393.914 404.618 394.07C404.493 394.384 404.308 394.834 404.073 395.381C403.603 396.475 402.933 397.951 402.129 399.478C401.324 401.008 400.394 402.576 399.407 403.864C398.697 404.79 397.985 405.533 397.299 406.023ZM396.154 406.574C395.899 406.603 395.632 406.548 395.341 406.4C394.909 406.18 394.444 405.764 393.971 405.16C393.028 403.954 392.164 402.14 391.542 400.205C390.921 398.271 390.559 396.277 390.579 394.728C390.589 393.951 390.695 393.329 390.881 392.891C391.063 392.464 391.292 392.27 391.54 392.203C391.788 392.138 392.037 392.191 392.338 392.443C392.658 392.713 392.99 393.178 393.318 393.836C393.971 395.143 394.512 397.014 394.943 398.963C395.372 400.902 395.682 402.877 395.885 404.37C395.987 405.116 396.061 405.74 396.11 406.177C396.128 406.335 396.143 406.468 396.154 406.574Z" fill="#FE5244"/>
<path fill-rule="evenodd" clip-rule="evenodd" d="M437.149 415.844L402.339 437.486L390.786 435.635L378.662 442.851L353.98 442.47L353.999 441.277L378.339 441.652L390.546 434.387L402.086 436.236L436.515 414.832L437.149 415.844Z" fill="#FE5244"/>
<path fill-rule="evenodd" clip-rule="evenodd" d="M388.842 416.327L391.12 405.764L392.292 406.015L390.014 416.578L388.842 416.327Z" fill="#FE5244"/>
<path fill-rule="evenodd" clip-rule="evenodd" d="M393.797 417.52L396.074 406.958L397.246 407.208L394.969 417.771L393.797 417.52Z" fill="#FE5244"/>
<path fill-rule="evenodd" clip-rule="evenodd" d="M398.971 418.376L401.248 407.813L402.42 408.064L400.143 418.627L398.971 418.376Z" fill="#FE5244"/>
<path d="M273.425 222.704C273.425 222.704 288.068 229.507 288.068 254.452C288.068 278.561 232.174 426.199 232.174 426.199L214.974 440.721L197.515 421.684C206.045 413.608 181.553 267.6 273.425 222.704Z" fill="#E57281"/>
<path d="M271.868 469.007L228.399 469.047L220.328 462.005L208.762 461.945L207.923 469.067L190.883 469.087C181.614 440.363 197.595 421.664 197.595 421.664L214.935 440.681L232.255 426.18C232.255 426.18 247.277 443.724 261.46 452.119C275.683 460.533 271.868 469.007 271.868 469.007Z" fill="white"/>
<path fill-rule="evenodd" clip-rule="evenodd" d="M197.58 420.76L214.99 439.854L232.324 425.341L232.71 425.792L232.254 426.179C232.71 425.792 232.71 425.792 232.71 425.792L232.72 425.804L232.752 425.841C232.781 425.874 232.823 425.923 232.879 425.988C232.992 426.117 233.159 426.309 233.377 426.555C233.813 427.049 234.453 427.764 235.265 428.649C236.89 430.42 239.204 432.867 241.959 435.576C247.478 441.002 254.738 447.446 261.766 451.606C268.977 455.871 271.704 460.209 272.578 463.569C273.012 465.241 272.98 466.644 272.835 467.637C272.762 468.134 272.661 468.527 272.577 468.802C272.534 468.939 272.496 469.046 272.467 469.122C272.46 469.141 272.453 469.159 272.447 469.174C272.441 469.188 272.436 469.2 272.432 469.211C272.427 469.222 272.423 469.231 272.42 469.237L272.417 469.246L272.415 469.25C272.415 469.251 272.414 469.251 271.868 469.007L272.414 469.251L272.256 469.603L228.174 469.644L220.101 462.601L209.295 462.545L208.456 469.663L190.446 469.684L190.312 469.269C185.632 454.766 187.324 442.777 190.196 434.411C191.631 430.23 193.359 426.955 194.732 424.723C195.418 423.606 196.015 422.75 196.443 422.17C196.657 421.88 196.829 421.659 196.948 421.51C197.008 421.435 197.054 421.378 197.087 421.339C197.103 421.32 197.115 421.305 197.124 421.295L197.134 421.282L197.137 421.279L197.138 421.278C197.138 421.278 197.139 421.277 197.595 421.664L197.139 421.277L197.58 420.76ZM197.627 422.587C197.561 422.673 197.488 422.77 197.409 422.877C196.999 423.432 196.421 424.261 195.754 425.346C194.419 427.517 192.732 430.712 191.33 434.797C188.556 442.881 186.897 454.455 191.321 468.489L207.39 468.47L208.229 461.346L220.555 461.409L228.624 468.45L271.443 468.411C271.509 468.189 271.589 467.87 271.648 467.465C271.774 466.607 271.807 465.366 271.417 463.868C270.642 460.887 268.166 456.78 261.154 452.632C253.998 448.397 246.656 441.871 241.117 436.426C238.344 433.699 236.016 431.236 234.381 429.455C233.563 428.564 232.918 427.843 232.477 427.344C232.368 427.22 232.271 427.11 232.188 427.015L214.879 441.507L197.627 422.587Z" fill="#FE5244"/>
<path fill-rule="evenodd" clip-rule="evenodd" d="M252.27 420.056C253.16 419.934 254.018 420.153 254.762 420.796C255.5 421.434 255.84 422.23 255.837 423.104C255.835 423.949 255.515 424.825 255.031 425.679C254.065 427.385 252.326 429.202 250.486 430.844C248.635 432.495 246.636 434.01 245.103 435.11C244.395 435.618 243.785 436.039 243.332 436.345C243.531 436.364 243.773 436.373 244.061 436.368C244.781 436.357 245.688 436.265 246.725 436.111C248.797 435.802 251.325 435.255 253.785 434.658C256.242 434.062 258.617 433.421 260.38 432.928C261.261 432.682 261.988 432.473 262.494 432.326C262.747 432.252 262.946 432.194 263.08 432.154C263.147 432.134 263.199 432.119 263.233 432.108L263.285 432.093C263.285 432.093 263.285 432.093 263.458 432.664C263.63 433.236 263.63 433.236 263.63 433.236L263.577 433.252C263.557 433.258 263.532 433.265 263.502 433.274C263.478 433.281 263.451 433.289 263.421 433.298C263.285 433.338 263.085 433.397 262.83 433.471C262.32 433.62 261.589 433.83 260.704 434.077C258.933 434.572 256.543 435.218 254.068 435.818C251.596 436.417 249.027 436.975 246.902 437.291C245.841 437.449 244.875 437.549 244.08 437.562C243.32 437.573 242.598 437.51 242.114 437.246C241.455 436.885 241.333 436.103 241.356 435.447C241.381 434.736 241.584 433.859 241.9 432.913C242.537 431.01 243.685 428.683 245.065 426.543C246.44 424.411 248.08 422.412 249.722 421.209C250.544 420.607 251.407 420.174 252.27 420.056ZM242.557 435.427C243.009 435.122 243.65 434.682 244.402 434.142C245.917 433.055 247.879 431.568 249.686 429.955C251.504 428.332 253.121 426.622 253.987 425.092C254.421 424.328 254.637 423.659 254.639 423.101C254.64 422.573 254.451 422.108 253.976 421.697C253.505 421.29 252.997 421.161 252.433 421.238C251.844 421.319 251.168 421.631 250.433 422.17C248.961 423.248 247.415 425.108 246.073 427.188C244.736 429.261 243.637 431.499 243.038 433.29C242.748 434.156 242.586 434.886 242.557 435.427Z" fill="#FE5244"/>
<path fill-rule="evenodd" clip-rule="evenodd" d="M188.265 444.189L188.905 443.18L209.154 455.898H223.362L232.332 463.397H272.207V464.591H231.895L222.926 457.092H208.808L188.265 444.189Z" fill="#FE5244"/>
<path fill-rule="evenodd" clip-rule="evenodd" d="M230.272 439.483L237.943 431.845L238.791 432.689L231.12 440.327L230.272 439.483Z" fill="#FE5244"/>
<path fill-rule="evenodd" clip-rule="evenodd" d="M233.787 443.163L241.458 435.524L242.306 436.368L234.635 444.007L233.787 443.163Z" fill="#FE5244"/>
<path fill-rule="evenodd" clip-rule="evenodd" d="M237.664 446.665L245.335 439.026L246.182 439.87L238.511 447.509L237.664 446.665Z" fill="#FE5244"/>
<path d="M273.425 222.704C238.885 239.572 220.787 270.763 211.218 303.525H106.401C79.5726 303.525 59.5761 278.879 65.2294 252.761L72.9204 217.194H255.166C261.918 217.194 268.191 219.223 273.425 222.704Z" fill="#FE5244"/>
<path d="M195.595 256.798L233.331 256.719L227.738 265.849L195.595 256.798Z" fill="#E57281"/>
<path fill-rule="evenodd" clip-rule="evenodd" d="M112.675 216.609C113 216.677 113.207 216.993 113.14 217.315L111.682 224.277C111.682 224.277 111.682 224.277 111.682 224.277C108.243 240.716 120.825 256.142 137.684 256.142H233.004C243.061 242.273 256.185 230.361 273.36 221.969C273.657 221.824 274.016 221.946 274.162 222.242C274.308 222.538 274.185 222.895 273.888 223.04C256.806 231.387 243.775 243.254 233.798 257.087L233.619 257.336H137.684C120.063 257.336 106.915 241.213 110.508 224.034L111.966 217.072C112.034 216.749 112.351 216.542 112.675 216.609Z" fill="white"/>
<path fill-rule="evenodd" clip-rule="evenodd" d="M195.021 256.614C195.112 256.297 195.444 256.114 195.762 256.205L228.252 265.489L227.855 266.154C220.875 277.857 215.739 290.639 211.934 303.671C211.842 303.988 211.509 304.17 211.191 304.078C210.873 303.986 210.691 303.655 210.783 303.338C214.537 290.478 219.588 277.837 226.43 266.21L195.432 257.352C195.114 257.261 194.93 256.931 195.021 256.614Z" fill="white"/>
<path d="M48.4293 121.653L67.6267 196.646H31.8088C10.9533 196.646 -2.47096 174.586 7.19769 156.186L34.7054 103.81C42.4962 88.9908 57.8981 79.7012 74.6984 79.7012H81.1908C59.1367 79.6813 42.9757 100.369 48.4293 121.653Z" fill="#3FB1B5"/>
<path d="M269.49 102.198C280.777 102.198 290.166 100.706 292.443 98.6174L257.424 174.207C251.092 187.893 237.328 196.645 222.205 196.645C217.771 196.645 213.416 195.889 209.301 194.437C205.185 192.985 201.31 190.857 197.854 188.072L175.78 170.328C175.78 170.328 173.583 183.198 157.901 186.48V217.154H72.901L48.4297 121.632C42.9761 100.348 59.1371 79.6404 81.1912 79.6404H140.701C145.955 79.6404 151.129 80.2968 156.123 81.5699C169.787 85.0311 182.053 93.0277 190.722 104.486L219.808 142.917L245.938 97.4437C245.938 97.4835 245.918 97.5432 245.918 97.583C245.938 100.229 256.505 102.198 269.49 102.198Z" fill="#3FB1B5"/>
<path fill-rule="evenodd" clip-rule="evenodd" d="M48.0853 121.073C48.4065 120.993 48.7315 121.188 48.811 121.508L67.609 197.098C67.6885 197.418 67.4926 197.742 67.1713 197.821C66.85 197.9 66.5251 197.705 66.4455 197.385L47.6476 121.795C47.568 121.475 47.764 121.152 48.0853 121.073Z" fill="white"/>
<path fill-rule="evenodd" clip-rule="evenodd" d="M158.868 153.204C159.109 152.978 159.489 152.99 159.715 153.23L176.416 170.934C176.642 171.174 176.63 171.552 176.389 171.778C176.148 172.003 175.769 171.991 175.542 171.751L158.842 154.047C158.615 153.807 158.627 153.429 158.868 153.204Z" fill="white"/>
<path d="M292.963 97.5032L292.443 98.6172C290.166 100.726 280.777 102.198 269.49 102.198C256.506 102.198 245.938 100.228 245.938 97.6226C245.938 97.5828 245.938 97.5231 245.958 97.4833C246.318 94.9371 256.745 92.749 269.51 92.749C282.255 92.749 292.603 94.9371 292.963 97.5032C292.963 97.4833 292.963 97.4833 292.963 97.5032Z" fill="#FE5244"/>
<path d="M303.429 59.3106C303.429 60.4444 303.149 61.5584 302.63 62.5331C302.11 63.5078 301.351 64.3632 300.412 65.0196L299.953 65.3379L296.377 84.3347C295.798 87.418 293.96 90.1432 291.303 91.834L286.409 94.9372L282.533 97.4038L280.736 101.681C277.399 102.019 273.584 102.218 269.509 102.218C265.394 102.218 261.518 102.019 258.142 101.661V72.2006C258.142 70.9275 258.422 69.6743 258.961 68.5206L265.473 54.5564C265.473 54.5564 272.585 56.3069 269.309 64.9997C266.332 72.8968 273.124 70.8678 276.94 69.4555C280.356 68.1824 295.278 60.6235 301.112 57.8585C302.19 57.3413 303.429 58.137 303.429 59.3106Z" fill="#E57281"/>
<path fill-rule="evenodd" clip-rule="evenodd" d="M297.289 76.625C297.56 76.6755 297.738 76.9353 297.688 77.2053C297.083 80.4241 295.164 83.2478 292.392 85.0123L283.622 90.5823C283.389 90.73 283.08 90.662 282.932 90.4305C282.784 90.1989 282.852 89.8915 283.084 89.7438L291.854 84.1742C294.395 82.5571 296.152 79.9701 296.706 77.0224C296.757 76.7524 297.017 76.5745 297.289 76.625Z" fill="#9A3B82"/>
<path fill-rule="evenodd" clip-rule="evenodd" d="M298.727 68.5689C298.998 68.6194 299.177 68.8792 299.126 69.1491C298.521 72.368 296.603 75.1916 293.83 76.9561L285.06 82.5261C284.827 82.6738 284.519 82.6059 284.37 82.3743C284.222 82.1427 284.29 81.8353 284.523 81.6876L293.292 76.1181C293.292 76.118 293.292 76.1179 293.292 76.1179C293.292 76.1179 293.292 76.1179 293.292 76.1179C295.833 74.5007 297.59 71.9138 298.144 68.9662C298.195 68.6963 298.456 68.5184 298.727 68.5689Z" fill="#9A3B82"/>
<path fill-rule="evenodd" clip-rule="evenodd" d="M299.735 65.29C299.883 65.5219 299.814 65.8292 299.581 65.9763L285.478 74.888C285.245 75.0352 284.936 74.9665 284.788 74.7346C284.64 74.5027 284.709 74.1954 284.942 74.0482L299.046 65.1366C299.279 64.9894 299.587 65.0581 299.735 65.29Z" fill="#9A3B82"/>
<path d="M287.169 94.4399L286.39 94.9372L282.514 97.4038L280.716 101.681C277.38 102.019 273.565 102.218 269.49 102.218C265.374 102.218 261.499 102.019 258.123 101.661V93.3856C261.499 92.9878 265.374 92.769 269.49 92.769C276.541 92.7491 282.854 93.4055 287.169 94.4399Z" fill="#9A3B82"/>
<path d="M154.266 81.1128C151.37 84.9917 140.583 94.1221 104.265 94.1221C57.5401 94.1221 87.445 79.7203 87.445 79.7203L107.262 46.7593L128.517 59.7488V70.192C128.517 75.4634 132.812 79.7203 138.085 79.7203H139.464C144.418 79.7004 149.532 79.9192 154.266 81.1128Z" fill="#E57281"/>
<path d="M128.498 59.7285V62.394L87.4258 79.7L107.243 46.739L128.498 59.7285Z" fill="#9A3B82"/>
<path d="M129.614 61.0211H134.129C138.284 61.0211 141.66 57.6594 141.66 53.5218V28.4778H114.711V46.1817C114.711 54.3772 121.384 61.0211 129.614 61.0211Z" fill="#E57281"/>
<path fill-rule="evenodd" clip-rule="evenodd" d="M137.457 49.8305L137.457 49.8302L137.456 49.8295L137.456 49.8287C137.456 49.8285 137.456 49.8286 137.456 49.8289C137.456 49.8289 137.456 49.8289 137.456 49.8289M137.456 49.8289C137.456 49.829 137.456 49.8291 137.456 49.8293C137.457 49.8305 137.459 49.8336 137.462 49.8382C137.468 49.8476 137.478 49.8636 137.493 49.8853C137.523 49.9287 137.57 49.9946 137.637 50.0756C137.771 50.2378 137.979 50.4586 138.27 50.6804C138.847 51.1205 139.756 51.5724 141.08 51.5724C141.356 51.5724 141.58 51.7951 141.58 52.0697C141.58 52.3444 141.356 52.567 141.08 52.567C139.508 52.567 138.389 52.0243 137.663 51.4698C137.302 51.1943 137.039 50.9178 136.865 50.707C136.778 50.6015 136.713 50.512 136.668 50.4466C136.646 50.4139 136.628 50.3872 136.616 50.3674C136.61 50.3575 136.605 50.3494 136.601 50.3431L136.596 50.3351L136.594 50.3322L136.594 50.331L136.593 50.3305C136.593 50.3302 136.593 50.33 137.025 50.0805" fill="#73325A"/>
<path d="M138.462 44.0534C138.992 44.0534 139.421 43.2251 139.421 42.2034C139.421 41.1818 138.992 40.3535 138.462 40.3535C137.933 40.3535 137.503 41.1818 137.503 42.2034C137.503 43.2251 137.933 44.0534 138.462 44.0534Z" fill="#73325A"/>
<path d="M119.847 31.0841C119.847 31.0841 142.081 44.4516 149.312 32.8147C155.665 22.6101 127.518 17.3586 117.689 17.3189C107.002 17.2791 92.8385 21.9935 93.0782 37.6485C93.278 50.5385 93.8173 69.3961 86.1463 66.114C58.8584 54.4572 34.6069 66.6311 34.527 89.8252C34.4471 113.019 61.4753 115.188 62.1545 109.2C62.8537 103.232 45.3743 104.605 47.7315 120.101C50.0688 135.597 60.4965 154.972 84.3085 154.972C113.075 154.991 131.393 117.276 113.594 113.437C99.9501 110.493 127.498 136.711 135.668 109.459C144.458 80.1179 112.695 70.5101 111.916 52.7863C111.137 35.0625 119.847 31.0841 119.847 31.0841Z" fill="#FFCF2D"/>
<path fill-rule="evenodd" clip-rule="evenodd" d="M101.014 21.1806C105.968 17.9808 112.287 16.8012 117.691 16.8213C122.659 16.8414 132.208 18.1729 139.733 20.7851C143.486 22.088 146.807 23.7329 148.79 25.7456C149.787 26.7583 150.471 27.89 150.673 29.1415C150.877 30.4009 150.582 31.7187 149.737 33.0762C147.832 36.1408 144.935 37.5495 141.719 37.9469C138.521 38.3421 134.988 37.7426 131.727 36.7902C128.459 35.8359 125.427 34.5161 123.214 33.4373C122.107 32.8975 121.203 32.4168 120.574 32.0706C120.26 31.8975 120.015 31.758 119.848 31.6613C119.843 31.6589 119.839 31.6565 119.835 31.6541C119.804 31.672 119.77 31.692 119.734 31.7142C119.515 31.8468 119.196 32.0587 118.813 32.3686C118.046 32.9881 117.018 34.0006 116.009 35.5582C113.993 38.6683 112.029 43.9883 112.415 52.7643C112.603 57.0448 114.662 60.8692 117.589 64.6907C119.051 66.5997 120.719 68.4949 122.464 70.4386C122.761 70.7695 123.06 71.1018 123.36 71.4358C124.822 73.0596 126.319 74.7225 127.764 76.4474C131.249 80.6079 134.466 85.1704 136.249 90.5621C138.036 95.9655 138.372 102.171 136.147 109.601C134.076 116.507 130.743 120.129 127.041 121.624C125.085 122.414 123.059 122.595 121.115 122.379C121.198 126.425 119.644 131.242 116.842 135.906C110.829 145.917 98.9148 155.479 84.3081 155.469C72.2476 155.469 63.5528 150.555 57.5888 143.672C51.6369 136.803 48.4164 127.99 47.2375 120.175C46.6652 116.412 47.2303 113.421 48.4518 111.138C48.2586 111.067 48.0653 110.994 47.8722 110.918C40.8857 108.164 33.9867 101.661 34.0275 89.8233C34.0681 78.032 40.2645 69.0176 49.9193 64.4511C59.5588 59.8918 72.5964 59.7844 86.3431 65.6567L86.3434 65.6568C87.2226 66.033 87.9273 66.0693 88.5039 65.8875C89.0845 65.7045 89.6093 65.277 90.0801 64.5845C91.0356 63.179 91.6706 60.8271 92.0687 57.8792C92.8145 52.3587 92.6972 45.0492 92.5973 38.8231C92.591 38.4295 92.5847 38.0402 92.5788 37.6558C92.4561 29.6473 96.0317 24.3988 101.014 21.1806ZM49.41 111.465C48.2522 113.549 47.6677 116.361 48.2252 120.026L48.2253 120.027C49.3836 127.707 52.5456 136.329 58.345 143.022C64.1321 149.701 72.5571 154.474 84.3084 154.474H84.3088C98.4682 154.484 110.097 145.198 115.985 135.396C118.771 130.757 120.237 126.058 120.111 122.232C118.751 121.984 117.445 121.554 116.246 121.017C114.653 120.303 113.234 119.394 112.107 118.451C110.987 117.514 110.127 116.519 109.689 115.623C109.47 115.176 109.338 114.716 109.366 114.28C109.395 113.822 109.602 113.417 110 113.134C110.377 112.865 110.885 112.735 111.482 112.71C112.085 112.683 112.822 112.761 113.7 112.951C116.02 113.451 117.786 114.513 119.013 116.01C120.21 117.471 120.867 119.312 121.058 121.371C122.915 121.601 124.833 121.442 126.666 120.702C130 119.356 133.175 116.036 135.189 109.316C137.359 102.075 137.021 96.0772 135.3 90.8732C133.575 85.6574 130.451 81.2089 126.997 77.0844C125.564 75.3743 124.081 73.727 122.62 72.1033C122.318 71.7684 122.018 71.4346 121.719 71.1014C119.974 69.1568 118.283 67.2365 116.795 65.2939C113.822 61.4122 111.618 57.3892 111.417 52.8078C111.024 43.8601 113.025 38.3289 115.169 35.0189C116.24 33.3664 117.341 32.2766 118.183 31.5963C118.604 31.2563 118.96 31.0189 119.214 30.8646C119.342 30.7875 119.444 30.7312 119.516 30.6932C119.552 30.6742 119.58 30.6598 119.601 30.6497C119.611 30.6446 119.62 30.6406 119.626 30.6377L119.634 30.634L119.638 30.6323C119.638 30.632 119.638 30.6319 119.847 31.0839L119.638 30.6319L119.879 30.5222L120.105 30.6581L120.098 30.6692C120.105 30.6582 120.105 30.6581 120.105 30.6581L120.105 30.6585L120.108 30.66L120.119 30.6667C120.129 30.6727 120.145 30.6819 120.165 30.694C120.206 30.7182 120.268 30.7542 120.349 30.801C120.511 30.8945 120.75 31.0307 121.058 31.2004C121.674 31.5398 122.563 32.0126 123.653 32.5441C125.836 33.6081 128.813 34.9028 132.008 35.8358C135.209 36.7707 138.591 37.3311 141.596 36.9598C144.582 36.5908 147.176 35.3066 148.887 32.5528L148.888 32.5525C149.631 31.3588 149.846 30.2804 149.687 29.2994C149.527 28.3103 148.978 27.3572 148.076 26.442C146.261 24.5987 143.122 23.0148 139.404 21.7243C131.987 19.1497 122.548 17.8356 117.687 17.8159M120.037 121.205C119.831 119.408 119.237 117.857 118.239 116.639C117.173 115.339 115.617 114.382 113.488 113.923C112.661 113.744 112.014 113.682 111.525 113.703C111.031 113.725 110.74 113.829 110.58 113.943C110.441 114.042 110.374 114.166 110.363 114.343C110.35 114.544 110.41 114.826 110.587 115.188C110.94 115.91 111.686 116.799 112.749 117.689C113.806 118.573 115.147 119.433 116.656 120.11C117.72 120.587 118.86 120.969 120.037 121.205ZM49.41 111.465C52.3735 112.407 55.275 112.698 57.5923 112.455C58.9487 112.312 60.1357 111.983 61.0213 111.467C61.9095 110.949 62.542 110.211 62.6506 109.257C62.7528 108.382 62.5205 107.618 62.028 107.008C61.5433 106.407 60.8316 105.987 60.0134 105.732C58.3815 105.223 56.2183 105.338 54.1412 106.138C52.2092 106.881 50.3197 108.228 48.9708 110.267C48.7273 110.18 48.4836 110.089 48.2398 109.993C41.5624 107.361 34.9872 101.183 35.0263 89.8267C35.0656 78.4239 41.035 69.7543 50.3478 65.3495C59.676 60.9375 72.408 60.7863 85.9491 66.5706C86.9877 67.015 87.9441 67.1073 88.8055 66.8357C89.6629 66.5654 90.3529 65.9574 90.9072 65.1421C92.0018 63.5321 92.6578 60.9794 93.0587 58.0118C93.8149 52.4136 93.6962 45.0333 93.5964 38.8314C93.5899 38.4292 93.5835 38.032 93.5775 37.6406C93.4604 29.9942 96.8466 25.0579 101.558 22.0151C106.297 18.954 112.404 17.7962 117.687 17.8159M49.9559 110.593C51.1665 108.868 52.8125 107.715 54.5011 107.065C56.4119 106.33 58.3401 106.253 59.7152 106.681C60.4006 106.894 60.9213 107.224 61.2496 107.631C61.5697 108.027 61.7307 108.525 61.6584 109.142L61.6582 109.144C61.5967 109.686 61.2361 110.189 60.5168 110.608C59.7946 111.029 58.7592 111.332 57.4874 111.466C55.3829 111.687 52.7151 111.437 49.9559 110.593Z" fill="white"/>
<path fill-rule="evenodd" clip-rule="evenodd" d="M134.19 42.3236H118.289V41.1301H134.19V42.3236Z" fill="#3FB1B5"/>
<path fill-rule="evenodd" clip-rule="evenodd" d="M139.085 37.1515C137.053 37.1515 135.169 39.32 135.169 42.3235C135.169 45.3269 137.053 47.4954 139.085 47.4954C141.117 47.4954 143 45.3269 143 42.3235C143 39.32 141.117 37.1515 139.085 37.1515ZM133.971 42.3235C133.971 38.955 136.13 35.958 139.085 35.958C142.04 35.958 144.199 38.955 144.199 42.3235C144.199 45.6919 142.04 48.6889 139.085 48.6889C136.13 48.6889 133.971 45.6919 133.971 42.3235Z" fill="#3FB1B5"/>
<path fill-rule="evenodd" clip-rule="evenodd" d="M114.433 13.9172C112.229 13.9172 110.458 15.6972 110.458 17.8757V34.6247H109.259V17.8757C109.259 15.0414 111.563 12.7236 114.433 12.7236H119.427C122.274 12.7236 124.601 15.0181 124.601 17.8757H123.403C123.403 15.6807 121.615 13.9172 119.427 13.9172H114.433Z" fill="#66B0F0"/>
<path d="M114.673 53.0649H105.065C102.608 53.0649 100.61 51.0757 100.61 48.629V39.0609C100.61 36.6142 102.608 34.625 105.065 34.625H114.673C117.13 34.625 119.128 36.6142 119.128 39.0609V48.629C119.108 51.0757 117.13 53.0649 114.673 53.0649Z" fill="white"/>
<path fill-rule="evenodd" clip-rule="evenodd" d="M105.064 35.2214C102.938 35.2214 101.209 36.9434 101.209 39.0605V48.6286C101.209 50.7457 102.938 52.4677 105.064 52.4677H114.673C116.794 52.4677 118.51 50.7503 118.529 48.626V39.0605C118.529 36.9434 116.799 35.2214 114.673 35.2214H105.064ZM100.01 39.0605C100.01 36.2842 102.276 34.0278 105.064 34.0278H114.673C117.461 34.0278 119.727 36.2842 119.727 39.0605V48.631L119.727 48.6334C119.704 51.4015 117.466 53.6612 114.673 53.6612H105.064C102.276 53.6612 100.01 51.4049 100.01 48.6286V39.0605Z" fill="#66B0F0"/>
<path d="M112.176 49.9019H107.481C105.464 49.9019 103.806 48.2708 103.806 46.2418V41.5671C103.806 39.558 105.444 37.907 107.481 37.907H112.176C114.193 37.907 115.852 39.5381 115.852 41.5671V46.2418C115.852 48.2708 114.213 49.9019 112.176 49.9019Z" fill="white"/>
<path fill-rule="evenodd" clip-rule="evenodd" d="M107.482 38.5043C105.778 38.5043 104.406 39.8861 104.406 41.5677V46.2423C104.406 47.9396 105.793 49.3057 107.482 49.3057H112.177C113.883 49.3057 115.253 47.9417 115.253 46.2423V41.5677C115.253 39.8704 113.865 38.5043 112.177 38.5043H107.482ZM103.207 41.5677C103.207 39.2311 105.111 37.3108 107.482 37.3108H112.177C114.523 37.3108 116.452 39.207 116.452 41.5677V46.2423C116.452 48.6009 114.545 50.4992 112.177 50.4992H107.482C105.136 50.4992 103.207 48.603 103.207 46.2423V41.5677Z" fill="#66B0F0"/>
<path fill-rule="evenodd" clip-rule="evenodd" d="M105.204 49.0861L113.554 38.0261L114.512 38.7433L106.162 49.8033L105.204 49.0861Z" fill="#66B0F0"/>
<path fill-rule="evenodd" clip-rule="evenodd" d="M103.567 47.1946L110.799 37.6465L111.756 38.3651L104.524 47.9132L103.567 47.1946Z" fill="#66B0F0"/>
<path fill-rule="evenodd" clip-rule="evenodd" d="M107.94 49.5421L115.172 39.9939L116.129 40.7126L108.897 50.2608L107.94 49.5421Z" fill="#66B0F0"/>
<path fill-rule="evenodd" clip-rule="evenodd" d="M110.839 49.5429L115.374 43.5554L116.331 44.2741L111.796 50.2616L110.839 49.5429Z" fill="#66B0F0"/>
<path fill-rule="evenodd" clip-rule="evenodd" d="M103.348 43.5942L107.862 37.6465L108.818 38.3662L104.304 44.3139L103.348 43.5942Z" fill="#66B0F0"/>
<path fill-rule="evenodd" clip-rule="evenodd" d="M102.147 325.803V314.843H103.346V325.803C103.346 331.424 98.7625 335.988 93.1177 335.988H68.4268V334.794H93.1177C98.1005 334.794 102.147 330.765 102.147 325.803Z" fill="#66B0F0"/>
<path fill-rule="evenodd" clip-rule="evenodd" d="M111.358 415.516V314.962H112.556V415.516H111.358Z" fill="#66B0F0"/>
<path fill-rule="evenodd" clip-rule="evenodd" d="M106.903 416.113C85.2201 416.113 67.8485 430.395 67.8485 447.761H66.6499C66.6499 429.521 84.7965 414.919 106.903 414.919H116.851C138.957 414.919 157.104 429.521 157.104 447.761H155.905C155.905 430.395 138.533 416.113 116.851 416.113H106.903Z" fill="#66B0F0"/>
<path d="M208.022 316.493H62.9927C55.7213 316.493 49.8481 310.625 49.8481 303.405H211.458L208.022 316.493Z" fill="#FFCF2D"/>
<path d="M66.3705 469.085C72.2841 469.085 77.078 464.311 77.078 458.423C77.078 452.534 72.2841 447.761 66.3705 447.761C60.457 447.761 55.6631 452.534 55.6631 458.423C55.6631 464.311 60.457 469.085 66.3705 469.085Z" fill="#FFCF2D"/>
<path d="M60.9155 338.116H82.4103C84.1682 338.116 85.5865 336.704 85.5865 334.953V334.715C85.5865 332.964 84.1682 331.552 82.4103 331.552H60.9155C59.1576 331.552 57.7393 332.964 57.7393 334.715V334.953C57.7393 336.704 59.1576 338.116 60.9155 338.116Z" fill="#FFCF2D"/>
<path fill-rule="evenodd" clip-rule="evenodd" d="M16.044 211.286C13.3883 203.856 18.9108 196.047 26.8366 196.047H102.488C109.853 196.047 116.411 200.662 118.893 207.563L118.894 207.563L153.599 304.399H49.4272L16.044 211.286ZM17.1731 210.885C14.7952 204.231 19.7404 197.241 26.8366 197.241H102.488C109.345 197.241 115.453 201.538 117.765 207.965L151.898 303.206H50.272L17.1732 210.886C17.1732 210.885 17.1731 210.885 17.1731 210.885Z" fill="#FFCF2D"/>
<path fill-rule="evenodd" clip-rule="evenodd" d="M19.2461 199.608H95.836C102.962 199.608 109.3 204.064 111.702 210.745L111.703 210.746L145.249 304.399H54.9441V303.206H143.549L110.574 211.148C108.342 204.939 102.454 200.801 95.836 200.801H19.2461V199.608Z" fill="#FFCF2D"/>
<path d="M156.324 469.085C162.238 469.085 167.032 464.311 167.032 458.423C167.032 452.534 162.238 447.761 156.324 447.761C150.411 447.761 145.617 452.534 145.617 458.423C145.617 464.311 150.411 469.085 156.324 469.085Z" fill="#FFCF2D"/>
</g>
<defs>
<filter id="filter0_d_1_1322" x="0" y="0" width="443" height="489" filterUnits="userSpaceOnUse" color-interpolation-filters="sRGB">
<feFlood flood-opacity="0" result="BackgroundImageFix"/>
<feColorMatrix in="SourceAlpha" type="matrix" values="0 0 0 0 0 0 0 0 0 0 0 0 0 0 0 0 0 0 127 0" result="hardAlpha"/>
<feOffset dy="4"/>
<feGaussianBlur stdDeviation="2"/>
<feComposite in2="hardAlpha" operator="out"/>
<feColorMatrix type="matrix" values="0 0 0 0 0 0 0 0 0 0 0 0 0 0 0 0 0 0 0.25 0"/>
<feBlend mode="normal" in2="BackgroundImageFix" result="effect1_dropShadow_1_1322"/>
<feBlend mode="normal" in="SourceGraphic" in2="effect1_dropShadow_1_1322" result="shape"/>
</filter>
</defs>
</svg>
