<svg width="16" height="16" viewBox="0 0 16 16" fill="none" xmlns="http://www.w3.org/2000/svg">
<path fill-rule="evenodd" clip-rule="evenodd" d="M5.66671 1.94784C5.11442 1.94784 4.66671 2.39555 4.66671 2.94784V13.052C4.66671 13.6043 5.11442 14.052 5.66671 14.052H10.3334C10.8857 14.052 11.3334 13.6043 11.3334 13.052V2.94784C11.3334 2.39555 10.8857 1.94784 10.3334 1.94784H10.2778L10.1154 2.33747C10.0119 2.58588 9.76916 2.74769 9.50004 2.74769H6.50004C6.23092 2.74769 5.9882 2.58588 5.88467 2.33747L5.72229 1.94784H5.66671ZM3.33337 2.94784C3.33337 1.65917 4.37804 0.614502 5.66671 0.614502H10.3334C11.622 0.614502 12.6667 1.65917 12.6667 2.94784V13.052C12.6667 14.3407 11.622 15.3853 10.3334 15.3853H5.66671C4.37804 15.3853 3.33337 14.3407 3.33337 13.052V2.94784Z" fill="white"/>
</svg>
