<svg width="525" height="620" viewBox="0 0 525 620" fill="none" xmlns="http://www.w3.org/2000/svg">
<path d="M522.288 619.212L357.62 619.671C337.436 619.89 315.996 620 293.759 620C239.633 620 190.159 619.299 152.32 618.138H0C0 575.956 29.6119 594.485 37.42 601.931C46.4991 610.582 34.808 564.523 53.3434 564.523C69.2109 564.523 78.29 577.029 78.29 577.029C78.29 577.029 78.7231 552.718 93.7665 552.368C108.81 552.018 118.364 572.802 130.237 589.907C135.139 596.96 141.034 602.566 146.607 606.837C185.116 605.567 236.854 604.778 293.759 604.778C320.717 604.778 346.502 604.954 370.289 605.282C412.556 605.282 451.261 570.437 462.24 561.698C489.365 540.059 476.515 591.637 476.515 591.637C476.515 591.637 497.425 577.839 512.133 577.949C532.903 578.08 522.288 619.212 522.288 619.212Z" fill="#D0F0E4"/>
<path fill-rule="evenodd" clip-rule="evenodd" d="M351.7 539.473L352.525 539.842C373.864 549.397 382.86 569.014 386.53 586.13C388.366 594.693 388.877 602.659 388.928 608.482C388.954 611.394 388.866 613.773 388.77 615.426C388.722 616.252 388.673 616.897 388.635 617.337C388.617 617.557 388.601 617.726 388.59 617.84C388.584 617.897 388.579 617.941 388.576 617.97L388.573 618.004L388.572 618.013L388.572 618.015C388.572 618.016 388.571 618.017 387.924 617.944C387.276 617.872 387.276 617.872 387.276 617.871L387.276 617.87L387.277 617.863L387.28 617.833C387.283 617.806 387.287 617.765 387.293 617.711C387.303 617.602 387.319 617.439 387.337 617.225C387.374 616.796 387.422 616.163 387.469 615.35C387.563 613.722 387.651 611.373 387.625 608.493C387.574 602.732 387.069 594.86 385.256 586.406C381.677 569.714 373.029 550.867 352.827 541.421C352.789 541.872 352.739 542.479 352.684 543.223C352.556 544.954 352.396 547.423 352.269 550.372C352.016 556.275 351.897 564.092 352.432 571.771C352.793 576.948 353.449 582.03 354.548 586.412C357.586 587.615 360.225 588.952 362.406 590.303C365.782 592.396 368.138 594.573 369.129 596.409C369.622 597.323 369.845 598.283 369.496 599.127C369.139 599.99 368.288 600.487 367.2 600.704L367.199 600.704C364.399 601.26 362.011 600.684 360.018 599.229C358.047 597.79 356.505 595.526 355.293 592.772C354.579 591.15 353.971 589.339 353.455 587.393C347.546 585.13 340.133 583.385 331.649 583.046C331.743 583.194 331.846 583.357 331.959 583.533C332.582 584.504 333.503 585.894 334.687 587.564C337.057 590.906 340.482 595.364 344.702 599.836C353.172 608.812 364.714 617.698 377.272 617.944L377.247 619.256C364.133 618.999 352.271 609.762 343.757 600.739C339.484 596.211 336.021 591.702 333.627 588.326C332.429 586.637 331.497 585.231 330.865 584.245C330.548 583.752 330.306 583.364 330.143 583.099C330.062 582.966 330 582.864 329.958 582.795C329.937 582.76 329.921 582.734 329.911 582.716L329.898 582.695L329.894 582.688C329.894 582.688 329.894 582.687 330.454 582.352L329.894 582.687L329.291 581.668L330.469 581.696C339.201 581.904 346.882 583.585 353.071 585.849C352.071 581.56 351.471 576.722 351.132 571.863C350.592 564.115 350.713 556.245 350.967 550.316C351.094 547.35 351.255 544.868 351.385 543.126C351.449 542.255 351.506 541.569 351.546 541.1C351.567 540.866 351.583 540.685 351.594 540.564C351.6 540.503 351.604 540.457 351.607 540.425L351.611 540.39L351.612 540.378C351.612 540.378 351.612 540.377 352.26 540.441L351.612 540.377L351.7 539.473ZM354.975 588C355.415 589.526 355.916 590.949 356.484 592.241C357.647 594.881 359.069 596.916 360.783 598.167C362.473 599.401 364.49 599.905 366.946 599.417C367.829 599.241 368.174 598.909 368.293 598.622C368.42 598.316 368.399 597.803 367.984 597.035C367.158 595.505 365.038 593.476 361.722 591.42C359.825 590.245 357.563 589.076 354.975 588Z" fill="#FFCF2D"/>
<path fill-rule="evenodd" clip-rule="evenodd" d="M409.491 583.136C408.562 583.235 407.393 583.498 405.952 583.96C393.173 588.069 386.189 596.713 382.391 604.349C380.49 608.17 379.39 611.735 378.764 614.344C378.452 615.648 378.259 616.711 378.144 617.445C378.087 617.812 378.049 618.097 378.026 618.289C378.014 618.384 378.006 618.457 378.001 618.505C377.998 618.528 377.996 618.546 377.995 618.557L377.994 618.569L377.994 618.572L377.994 618.572C377.994 618.572 377.994 618.572 377.345 618.512C376.696 618.453 376.696 618.452 376.696 618.452L376.696 618.45L376.697 618.445L376.699 618.428C376.7 618.414 376.702 618.393 376.705 618.366C376.711 618.311 376.719 618.232 376.732 618.129C376.757 617.924 376.797 617.624 376.857 617.241C376.976 616.476 377.176 615.378 377.498 614.037C378.14 611.354 379.271 607.691 381.226 603.762C385.138 595.898 392.359 586.953 405.556 582.711L405.556 582.711C407.047 582.232 408.307 581.943 409.354 581.832C410.393 581.721 411.27 581.78 411.965 582.047C412.686 582.323 413.192 582.816 413.45 583.494C413.696 584.143 413.691 584.897 413.541 585.68C413.243 587.242 412.321 589.183 411.053 591.293C409.776 593.418 408.111 595.773 406.27 598.176C402.589 602.983 398.176 608.019 394.689 611.848C392.945 613.764 391.43 615.38 390.351 616.518C389.811 617.086 389.38 617.536 389.084 617.843C388.936 617.996 388.822 618.114 388.745 618.194C388.706 618.234 388.676 618.265 388.656 618.285L388.627 618.316C388.626 618.316 388.626 618.316 388.161 617.856C387.697 617.397 387.697 617.397 387.697 617.396L387.726 617.367C387.745 617.347 387.774 617.317 387.812 617.278C387.889 617.199 388.002 617.082 388.149 616.929C388.443 616.625 388.871 616.178 389.408 615.612C390.482 614.479 391.991 612.87 393.729 610.962C397.205 607.143 401.589 602.139 405.238 597.375C407.063 594.993 408.696 592.681 409.938 590.614C411.19 588.531 412.009 586.755 412.261 585.433C412.387 584.775 412.358 584.295 412.232 583.963C412.118 583.66 411.903 583.426 411.501 583.273C411.074 583.109 410.427 583.036 409.491 583.136Z" fill="#FFCF2D"/>
<path fill-rule="evenodd" clip-rule="evenodd" d="M129.685 514.944L129.239 515.256C129.685 514.944 129.685 514.944 129.685 514.944L129.686 514.945L129.688 514.948L129.694 514.957C129.699 514.965 129.706 514.975 129.714 514.988C129.731 515.013 129.754 515.05 129.784 515.099C129.844 515.196 129.93 515.34 130.038 515.535C130.253 515.925 130.557 516.521 130.922 517.358C131.651 519.032 132.626 521.671 133.628 525.563C135.568 533.102 137.608 545.346 138.16 564.391C138.636 563.601 139.278 562.548 140.057 561.296C141.85 558.414 144.373 554.472 147.292 550.236C153.115 541.786 160.567 532.082 166.969 527.321L167.887 526.639L167.834 527.786L167.292 527.761C167.834 527.786 167.834 527.786 167.834 527.787L167.833 527.815C167.832 527.833 167.83 527.861 167.829 527.897C167.825 527.97 167.82 528.078 167.812 528.22C167.797 528.504 167.774 528.922 167.741 529.46C167.676 530.537 167.572 532.096 167.42 534.027C167.116 537.888 166.615 543.238 165.832 549.195C164.359 560.391 161.88 573.793 157.793 583.465C157.988 583.344 158.197 583.216 158.422 583.084C159.808 582.267 161.756 581.28 163.993 580.612C168.474 579.274 174.196 579.203 178.797 584.438C181.12 587.081 181.724 590.047 181.325 592.972C180.928 595.874 179.547 598.73 177.915 601.227C176.28 603.729 174.37 605.907 172.872 607.456C172.123 608.231 171.474 608.851 171.013 609.278C170.782 609.492 170.597 609.658 170.47 609.77C170.406 609.826 170.357 609.869 170.323 609.899C170.306 609.913 170.293 609.925 170.284 609.932L170.274 609.941L170.27 609.944C170.27 609.944 170.27 609.944 169.92 609.527C169.715 609.283 169.63 609.182 169.595 609.14L169.569 609.109L169.57 609.109L169.571 609.107L169.58 609.1C169.587 609.094 169.599 609.084 169.615 609.07C169.634 609.053 169.66 609.031 169.691 609.003C169.71 608.987 169.731 608.969 169.753 608.949C169.875 608.841 170.053 608.681 170.278 608.474C170.727 608.058 171.361 607.452 172.094 606.693C173.563 605.174 175.423 603.051 177.008 600.626C178.596 598.196 179.884 595.498 180.249 592.823C180.611 590.171 180.07 587.537 177.983 585.162C173.766 580.363 168.553 580.39 164.302 581.66C162.174 582.295 160.308 583.239 158.97 584.027C158.303 584.42 157.77 584.773 157.405 585.027C157.223 585.153 157.083 585.255 156.989 585.325C156.943 585.359 156.907 585.386 156.884 585.404C156.873 585.412 156.864 585.419 156.859 585.423L156.853 585.428L156.852 585.428L156.852 585.428L155.062 586.832L156.027 584.765C160.506 575.173 163.192 560.938 164.755 549.052C165.535 543.118 166.034 537.787 166.338 533.94C166.489 532.016 166.592 530.464 166.657 529.393C166.668 529.224 166.677 529.066 166.685 528.921C160.655 533.778 153.728 542.814 148.185 550.859C145.278 555.078 142.764 559.004 140.978 561.876C140.084 563.312 139.373 564.483 138.885 565.296C138.641 565.702 138.453 566.018 138.326 566.233C138.263 566.34 138.215 566.422 138.183 566.477L138.146 566.539L138.135 566.558L138.134 566.559C138.134 566.559 138.134 566.559 137.666 566.283L138.134 566.559L137.168 568.216L137.123 566.296C136.657 546.236 134.554 533.522 132.577 525.837C131.588 521.996 130.631 519.412 129.927 517.797C129.616 517.085 129.355 516.561 129.162 516.201C125.968 520.16 123.201 525.874 120.841 532.31C118.366 539.062 116.356 546.563 114.777 553.57C113.197 560.576 112.049 567.079 111.297 571.831C110.92 574.207 110.643 576.144 110.459 577.487C110.368 578.158 110.299 578.681 110.254 579.035C110.232 579.213 110.215 579.348 110.204 579.438C110.198 579.484 110.194 579.518 110.191 579.541L110.187 579.574C110.187 579.575 110.187 579.575 109.648 579.51L110.187 579.575L110.012 581.044L109.196 579.813C102.28 569.371 90.641 561.662 80.6775 556.555C75.7035 554.005 71.1639 552.112 67.8683 550.857C66.2208 550.229 64.885 549.762 63.9621 549.451C63.7783 549.389 63.6109 549.333 63.4607 549.284C68.7949 569.68 80.4671 586.166 90.8942 597.611C96.1865 603.42 101.152 607.924 104.793 610.975C106.613 612.5 108.102 613.662 109.135 614.441C109.651 614.83 110.053 615.124 110.325 615.321C110.461 615.419 110.565 615.492 110.634 615.541C110.669 615.565 110.695 615.584 110.712 615.596L110.731 615.609L110.736 615.612L110.737 615.613C110.737 615.613 110.737 615.613 110.43 616.064C110.123 616.515 110.123 616.514 110.122 616.514L110.115 616.509L110.094 616.494C110.075 616.481 110.047 616.462 110.011 616.437C109.939 616.386 109.832 616.31 109.693 616.209C109.414 616.009 109.006 615.71 108.483 615.315C107.437 614.526 105.934 613.353 104.098 611.815C100.427 608.739 95.4251 604.202 90.0938 598.35C79.4356 586.651 67.4389 569.673 62.1638 548.598L61.9303 547.665L62.8459 547.941L62.6903 548.465C62.8459 547.941 62.8462 547.941 62.8465 547.941L62.8529 547.943L62.8718 547.949C62.8883 547.954 62.9127 547.962 62.9448 547.971C63.0089 547.991 63.1037 548.021 63.2275 548.06C63.4752 548.139 63.8391 548.257 64.3065 548.414C65.2414 548.729 66.5906 549.201 68.2526 549.834C71.5761 551.1 76.1533 553.009 81.1703 555.58C90.8158 560.525 102.149 567.951 109.291 578.026C109.318 577.818 109.349 577.588 109.383 577.338C109.568 575.988 109.846 574.043 110.224 571.659C110.979 566.891 112.131 560.364 113.717 553.328C115.303 546.295 117.325 538.744 119.822 531.931C122.316 525.129 125.3 519.018 128.828 514.899L129.285 514.365L129.685 514.944Z" fill="#FE5244"/>
<path fill-rule="evenodd" clip-rule="evenodd" d="M128.717 516.68C128.717 516.679 128.717 516.679 129.26 516.677C129.803 516.675 129.803 516.675 129.803 516.676L129.804 516.927C129.805 517.093 129.805 517.339 129.806 517.662C129.808 518.306 129.81 519.253 129.811 520.462C129.814 522.879 129.813 526.346 129.799 530.541C129.772 538.93 129.694 550.235 129.493 561.895C129.293 573.555 128.968 585.574 128.446 595.39C128.185 600.297 127.875 604.66 127.505 608.154C127.138 611.63 126.707 614.3 126.189 615.786L125.164 615.424C125.634 614.074 126.057 611.524 126.425 608.039C126.792 604.571 127.101 600.23 127.362 595.331C127.883 585.535 128.207 573.531 128.408 561.876C128.609 550.223 128.686 538.923 128.713 530.537C128.727 526.344 128.728 522.879 128.725 520.463C128.724 519.255 128.722 518.309 128.72 517.665C128.719 517.343 128.719 517.096 128.718 516.93L128.717 516.68Z" fill="#FE5244"/>
<path fill-rule="evenodd" clip-rule="evenodd" d="M165.568 529.772C165.568 529.771 165.569 529.771 166.075 529.969C166.581 530.167 166.58 530.168 166.58 530.168L166.562 530.217C166.549 530.249 166.53 530.297 166.505 530.361C166.456 530.489 166.382 530.679 166.285 530.928C166.091 531.425 165.804 532.156 165.435 533.094C164.696 534.968 163.624 537.666 162.293 540.961C159.632 547.55 155.932 556.53 151.781 566.086C147.631 575.642 143.027 585.78 138.557 594.686C134.093 603.582 129.745 611.283 126.103 615.943L125.25 615.267C128.819 610.7 133.126 603.084 137.588 594.193C142.045 585.313 146.64 575.195 150.786 565.649C154.932 556.103 158.628 547.133 161.287 540.549C162.617 537.257 163.688 534.562 164.425 532.69C164.794 531.754 165.08 531.024 165.274 530.528C165.371 530.28 165.444 530.091 165.494 529.963C165.519 529.9 165.537 529.852 165.55 529.819L165.568 529.772Z" fill="#FE5244"/>
<path fill-rule="evenodd" clip-rule="evenodd" d="M148.868 591.208C147.914 592.419 147.571 593.425 147.806 594.193C147.944 594.632 148.11 594.763 148.21 594.804C148.317 594.849 148.515 594.86 148.857 594.701C149.553 594.379 150.462 593.532 151.42 592.367C152.361 591.221 153.298 589.834 154.057 588.516C154.628 587.525 155.086 586.595 155.373 585.849C154.506 586.4 153.624 586.998 152.779 587.624C151.209 588.788 149.801 590.025 148.868 591.208ZM156.213 585.327C158.247 584.091 160.089 583.165 161.008 582.821L160.63 581.797C159.083 582.376 155.336 584.372 152.135 586.744C150.534 587.931 149.037 589.235 148.018 590.528C147.021 591.793 146.364 593.196 146.769 594.516L146.77 594.519C146.958 595.122 147.282 595.601 147.795 595.815C148.301 596.025 148.838 595.913 149.311 595.694C150.246 595.261 151.287 594.243 152.256 593.064C153.242 591.865 154.212 590.426 154.996 589.064C155.775 587.712 156.394 586.397 156.651 585.448L156.213 585.327Z" fill="#FE5244"/>
<path fill-rule="evenodd" clip-rule="evenodd" d="M110.692 591.116C110.934 591.593 111.173 591.723 111.385 591.732L111.386 591.732C112.074 591.759 112.524 591.643 112.813 591.469C113.088 591.304 113.265 591.06 113.363 590.717C113.573 589.976 113.394 588.838 112.92 587.452C112.248 585.492 111.091 583.31 110.155 581.584C110.142 581.767 110.129 581.951 110.117 582.134C109.95 584.647 109.909 587.13 110.146 588.98C110.265 589.911 110.448 590.635 110.692 591.116ZM109.216 579.769L109.188 579.784C109.195 579.798 109.203 579.813 109.21 579.827C109.143 580.56 109.083 581.311 109.033 582.062C108.866 584.591 108.818 587.16 109.069 589.12C109.193 590.094 109.396 590.965 109.725 591.612C110.054 592.263 110.572 592.794 111.343 592.824C112.158 592.857 112.838 592.726 113.369 592.409C113.912 592.083 114.244 591.592 114.407 591.018C114.718 589.924 114.427 588.5 113.946 587.096C113.189 584.884 111.828 582.382 110.86 580.601C110.661 580.235 110.479 579.9 110.322 579.605C110.474 577.999 110.655 576.487 110.818 575.246C110.942 574.307 111.055 573.525 111.137 572.978C111.178 572.705 111.211 572.49 111.234 572.344C111.246 572.271 111.255 572.216 111.261 572.178L111.268 572.136L111.27 572.122C111.27 572.122 111.27 572.122 110.734 572.033C110.198 571.944 110.198 571.944 110.198 571.944L110.196 571.959L110.189 572.003C110.183 572.042 110.174 572.099 110.162 572.173C110.138 572.321 110.105 572.539 110.063 572.815C109.98 573.367 109.866 574.156 109.742 575.103C109.568 576.421 109.374 578.047 109.216 579.769Z" fill="#FE5244"/>
<path d="M284.341 544.071C269.572 551.351 270.962 565.321 270.831 574.7C270.679 584.691 251.74 589.917 251.74 589.917C256.779 573.935 253.195 557.473 253.195 557.473L284.341 544.071Z" fill="#A0505A"/>
<path d="M300.001 580.866L296.634 582.703L289.575 566.459C289.206 565.606 288.381 565.103 287.534 565.103C287.251 565.103 286.947 565.169 286.665 565.278C285.948 565.584 285.427 566.262 285.34 567.049L282.234 590.595L241.38 612.982C240.163 610.053 247.743 602.707 251.762 589.917C251.762 589.917 270.723 584.692 270.853 574.701C270.983 565.322 269.615 551.33 284.362 544.071L287.468 542.738C304.41 550.586 300.001 580.866 300.001 580.866Z" fill="#FFCF2D"/>
<path d="M287.448 427.392V542.738L253.652 557.496L228.327 441.69C239.665 442.127 258.561 439.722 287.448 427.392Z" fill="white"/>
<path fill-rule="evenodd" clip-rule="evenodd" d="M287.991 426.566V543.097L253.264 558.261L227.646 441.116L228.348 441.143C239.586 441.577 258.402 439.196 287.236 426.888L287.991 426.566ZM229.008 442.259L254.041 556.73L286.905 542.38V428.216C258.97 440.044 240.411 442.572 229.008 442.259Z" fill="#9A3B82"/>
<path fill-rule="evenodd" clip-rule="evenodd" d="M268.727 550.663L262.059 437.568L263.143 437.503L269.811 550.598L268.727 550.663Z" fill="#9A3B82"/>
<path d="M287.448 427.392V457.584L229.934 449.21L228.327 441.69C239.665 442.127 258.561 439.722 287.448 427.392Z" fill="#9A3B82"/>
<path d="M457.774 349.124L435.924 353.758C435.186 353.911 434.447 353.671 433.926 353.124C433.557 352.709 433.361 352.206 433.361 351.682C433.361 351.113 433.578 350.545 434.035 350.129L446.197 338.652L443.504 336.225C443.504 336.225 415.269 341.8 413.662 359.53L415.812 361.891C426.911 372.866 438.878 367.204 447.24 364.362C455.233 361.651 464.768 374.134 466.657 376.714C466.679 376.714 466.722 376.714 466.744 376.714C479.341 376.299 488.268 380.802 490.462 378.769L457.774 349.124Z" fill="#FFCF2D"/>
<path d="M415.834 361.891C426.932 372.866 438.9 367.204 447.262 364.362C456.167 361.345 466.788 376.714 466.788 376.714C451.019 377.217 437.575 385.634 437.575 385.634L415.834 361.891Z" fill="#A0505A"/>
<path d="M280.911 428.375C280.911 428.375 286.406 465.738 328.564 465.038C370.721 464.339 437.118 385.415 437.118 385.415L413.769 359.661L280.911 428.375Z" fill="white"/>
<path fill-rule="evenodd" clip-rule="evenodd" d="M413.89 358.984L437.841 385.402L437.532 385.768L437.118 385.415C437.532 385.768 437.532 385.769 437.531 385.769L437.52 385.783L437.483 385.827C437.451 385.865 437.402 385.922 437.339 385.997C437.211 386.147 437.022 386.369 436.773 386.659C436.275 387.239 435.54 388.089 434.589 389.17C432.688 391.333 429.927 394.422 426.481 398.131C419.591 405.549 409.962 415.448 399.013 425.371C388.066 435.292 375.786 445.247 363.594 452.768C351.415 460.282 339.259 465.408 328.573 465.585C307.301 465.938 295.226 456.674 288.488 447.289C285.127 442.608 283.1 437.907 281.914 434.377C281.32 432.612 280.936 431.137 280.7 430.101C280.582 429.583 280.501 429.175 280.449 428.894C280.423 428.754 280.405 428.646 280.392 428.572C280.386 428.535 280.382 428.507 280.379 428.487L280.375 428.464L280.374 428.458L280.374 428.456C280.374 428.456 280.374 428.455 280.911 428.375L280.374 428.455L280.317 428.068L413.89 358.984ZM281.514 428.678C281.515 428.683 281.516 428.689 281.517 428.695C281.566 428.961 281.644 429.355 281.759 429.857C281.988 430.862 282.362 432.301 282.943 434.027C284.104 437.481 286.086 442.077 289.368 446.649C295.917 455.771 307.669 464.839 328.555 464.492C338.947 464.32 350.899 459.318 363.027 451.836C375.141 444.363 387.365 434.456 398.286 424.558C409.206 414.663 418.812 404.787 425.688 397.385C429.126 393.684 431.881 390.602 433.776 388.446C434.723 387.368 435.456 386.521 435.951 385.944C436.13 385.736 436.278 385.563 436.394 385.427L413.648 360.338L281.514 428.678Z" fill="#9A3B82"/>
<path fill-rule="evenodd" clip-rule="evenodd" d="M357.489 430.732C348.991 434.858 340.715 437.435 333.177 437.557C323.096 437.723 316.315 435.471 311.871 431.859C307.421 428.242 305.386 423.322 304.678 418.308L305.753 418.154C306.435 422.978 308.374 427.612 312.553 431.008C316.737 434.408 323.237 436.627 333.16 436.464H333.16C340.478 436.346 348.592 433.838 357.017 429.747C365.436 425.659 374.133 420.008 382.609 413.639C399.56 400.902 415.582 385.332 426.672 373.776L427.453 374.536C416.345 386.11 400.277 401.728 383.258 414.515C374.749 420.909 365.991 426.604 357.489 430.732Z" fill="#9A3B82"/>
<path d="M464.918 283.448C461.074 281.984 451.93 287.012 445.045 295.757C437.639 305.136 434.641 315.105 437.899 317.707L333.58 261.87C328.454 259.137 322.547 263.816 324.002 269.456L355.582 389.875C248.614 459.748 214.318 438.804 214.318 438.804V43.0914C214.318 43.1133 214.318 43.1133 214.34 43.1352C215.252 45.4745 225.048 43.8348 236.233 39.4404C246.528 35.4177 254.391 30.4768 254.89 27.897L254.912 27.8751V152.557C254.912 160.384 259.104 167.577 265.881 171.403L464.918 283.448Z" fill="#FE5244"/>
<path d="M464.918 283.448C461.074 281.983 451.93 287.012 445.045 295.757C437.639 305.136 434.641 315.105 437.899 317.707L333.58 261.87C328.454 259.137 322.547 263.816 324.002 269.456L355.582 390.356C328.389 408.13 305.888 419.543 287.448 427.413C258.561 439.722 239.665 442.148 228.327 441.711C218.445 441.34 214.318 438.804 214.318 438.804V43.0914C214.318 43.1133 214.318 43.1133 214.34 43.1352C215.252 45.4745 225.048 43.8348 236.233 39.4404C246.528 35.4177 254.391 30.4768 254.89 27.897L254.912 27.8751V152.557C254.912 160.384 259.104 167.577 265.881 171.403L464.918 283.448Z" fill="#FE5244"/>
<path fill-rule="evenodd" clip-rule="evenodd" d="M314.718 251.851C314.89 251.532 315.285 251.414 315.602 251.587L438.208 318.53C438.525 318.703 438.642 319.101 438.47 319.419C438.299 319.738 437.903 319.856 437.587 319.683L314.98 252.74C314.664 252.567 314.547 252.169 314.718 251.851Z" fill="white"/>
<path d="M268.791 173.021L255.043 253.453L325.219 204.809L268.791 173.021Z" fill="#FFCF2D"/>
<path fill-rule="evenodd" clip-rule="evenodd" d="M268.902 172.374C269.256 172.436 269.494 172.775 269.433 173.132L255.947 252.03L324.849 204.269C325.145 204.063 325.551 204.139 325.755 204.437C325.959 204.735 325.884 205.144 325.588 205.349L254.138 254.876L268.149 172.91C268.21 172.553 268.547 172.313 268.902 172.374Z" fill="white"/>
<path d="M268.226 17.774L177.634 36.4664C174.289 37.166 170.836 34.1709 169.946 29.7765C169.055 25.3821 171.053 21.272 174.398 20.5724L264.99 1.87988L268.226 17.774Z" fill="white"/>
<path fill-rule="evenodd" clip-rule="evenodd" d="M265.413 1.2345L268.867 18.1994L177.745 37.0014C177.744 37.0015 177.744 37.0016 177.743 37.0017M177.743 37.0017C175.871 37.3927 174.006 36.7413 172.514 35.4452C171.023 34.1491 169.881 32.1911 169.413 29.8856C168.491 25.3338 170.53 20.823 174.287 20.037L174.289 20.0367L265.413 1.2345M264.567 2.52488L174.508 21.1073C174.508 21.1073 174.508 21.1074 174.508 21.1074C171.576 21.721 169.619 25.4304 170.477 29.6671C170.901 31.7559 171.93 33.4926 173.224 34.6179C174.518 35.7427 176.051 36.2391 177.524 35.9311L177.525 35.9308L267.585 17.3481L264.567 2.52488Z" fill="#3FB1B5"/>
<path d="M268.194 17.7872C271.543 17.0962 273.534 12.9787 272.64 8.59046C271.746 4.20226 268.307 1.20508 264.958 1.89607C261.609 2.58706 259.619 6.70456 260.512 11.0928C261.406 15.481 264.845 18.4781 268.194 17.7872Z" fill="white"/>
<path fill-rule="evenodd" clip-rule="evenodd" d="M261.633 5.34735C260.885 6.89428 260.619 8.89685 261.044 10.9833C261.469 13.0697 262.496 14.8057 263.788 15.9317C265.08 17.0573 266.61 17.5563 268.085 17.252C269.56 16.9477 270.772 15.8827 271.52 14.3364C272.268 12.7895 272.533 10.7869 272.108 8.70047C271.683 6.61405 270.657 4.87805 269.364 3.75202C268.073 2.62646 266.542 2.1274 265.067 2.43173C263.592 2.73606 262.38 3.80106 261.633 5.34735ZM260.656 4.86907C261.518 3.08681 262.975 1.74756 264.849 1.3609C266.723 0.974239 268.587 1.62827 270.075 2.92561C271.563 4.22248 272.703 6.17917 273.172 8.48097C273.641 10.7828 273.358 13.033 272.496 14.8147C271.635 16.5969 270.177 17.9362 268.303 18.3228C266.429 18.7095 264.566 18.0555 263.077 16.7581C261.589 15.4613 260.449 13.5046 259.98 11.2028C259.512 8.90098 259.795 6.65069 260.656 4.86907Z" fill="#3FB1B5"/>
<path d="M216.535 25.7323C216.535 25.7323 187.235 58.8759 190.428 66.178C194.598 70.3538 197.986 72.1902 197.487 73.7424C196.944 75.4259 189.928 85.5919 189.928 85.5919L189.233 78.0494L182.522 80.2794C182.522 80.2794 189.602 69.8728 190.059 66.6808C187.148 64.4509 181.219 59.816 181.414 56.5803C181.631 53.1479 192.013 40.9486 199.55 32.5315L188.191 36.3138L185.954 25.7541L206.392 21.9719L216.535 25.7323Z" fill="#FE5244"/>
<path d="M212.559 27.1757C215.965 27.1757 218.727 24.3959 218.727 20.9668C218.727 17.5377 215.965 14.7578 212.559 14.7578C209.152 14.7578 206.391 17.5377 206.391 20.9668C206.391 24.3959 209.152 27.1757 212.559 27.1757Z" fill="white"/>
<path fill-rule="evenodd" clip-rule="evenodd" d="M212.559 15.3039C209.453 15.3039 206.934 17.8391 206.934 20.9663C206.934 24.0936 209.453 26.6287 212.559 26.6287C215.666 26.6287 218.185 24.0936 218.185 20.9663C218.185 17.8391 215.666 15.3039 212.559 15.3039ZM205.848 20.9663C205.848 17.2354 208.853 14.2108 212.559 14.2108C216.266 14.2108 219.271 17.2354 219.271 20.9663C219.271 24.6973 216.266 27.7219 212.559 27.7219C208.853 27.7219 205.848 24.6973 205.848 20.9663Z" fill="#FE5244"/>
<path d="M254.892 27.8964C254.392 30.4762 246.53 35.4171 236.235 39.4398C225.049 43.8123 215.253 45.4739 214.341 43.1346C214.341 43.1127 214.341 43.1127 214.319 43.0908C213.538 40.7297 221.834 35.3296 232.955 30.979C244.14 26.6065 253.936 24.9449 254.848 27.2842C254.913 27.4591 254.935 27.6559 254.892 27.8964Z" fill="#9A3B82"/>
<path d="M247.353 9.53301L246.158 26.8919L245.594 35.1996C242.879 36.6426 239.686 38.0855 236.233 39.441C230.368 41.7366 224.895 43.2669 220.877 43.9009V28.0287L237.362 24.6182C237.362 24.6182 238.274 18.6934 240.012 13.7306C241.728 8.74595 247.353 9.53301 247.353 9.53301Z" fill="#A0505A"/>
<path fill-rule="evenodd" clip-rule="evenodd" d="M237.921 23.4715C238.154 23.5288 238.296 23.7655 238.239 24C238.199 24.1661 238.101 24.2978 238.015 24.3917C237.925 24.4913 237.813 24.587 237.693 24.6782C237.455 24.8603 237.138 25.0617 236.787 25.2784C236.685 25.3412 236.579 25.4059 236.471 25.4725C235.817 25.8733 235.047 26.3447 234.283 26.9126C232.486 28.2468 230.846 30.0186 230.846 32.4226C230.846 32.6641 230.651 32.8599 230.411 32.8599C230.171 32.8599 229.977 32.6641 229.977 32.4226C229.977 29.5796 231.92 27.5801 233.767 26.2089C234.565 25.6159 235.371 25.1226 236.024 24.7226C236.131 24.6568 236.234 24.5936 236.332 24.5329C236.687 24.3141 236.969 24.1338 237.168 23.9815C237.268 23.9055 237.334 23.8459 237.375 23.8012C237.389 23.7848 237.398 23.7736 237.402 23.7674C237.469 23.5477 237.696 23.4162 237.921 23.4715Z" fill="#73325A"/>
<path d="M246.159 26.891L245.594 35.1988C242.879 36.6417 239.686 38.0846 236.233 39.4401C230.368 41.7357 224.895 43.266 220.877 43.9V36.7291C224.091 34.8271 228.283 32.8157 232.953 30.9793C237.818 29.0554 242.423 27.6562 246.159 26.891Z" fill="#73325A"/>
<path d="M235.365 18.2114L216.969 22.4527C215.991 22.6713 215.079 21.8843 215.079 20.7911V9.5538C215.079 8.04528 215.991 6.73353 217.316 6.29628L235.496 0.327805C236.647 -0.0438577 237.798 0.874368 237.798 2.16426V14.9757C237.776 16.5279 236.777 17.8834 235.365 18.2114Z" fill="#A0505A"/>
<path fill-rule="evenodd" clip-rule="evenodd" d="M222.359 5.07735C222.429 5.30855 222.299 5.5525 222.069 5.62223C220.885 5.98172 220.075 7.07913 220.075 8.32995V19.1082C220.075 19.8787 220.775 20.4363 221.504 20.2769C221.738 20.2256 221.969 20.3753 222.02 20.6113C222.071 20.8473 221.923 21.0801 221.688 21.1314C220.418 21.4093 219.206 20.4365 219.206 19.1082V8.32995C219.206 6.69491 220.265 5.25627 221.818 4.78497C222.048 4.71525 222.29 4.84615 222.359 5.07735Z" fill="#73325A"/>
<path fill-rule="evenodd" clip-rule="evenodd" d="M227.658 3.45955C227.727 3.69075 227.597 3.9347 227.368 4.00443C226.193 4.36101 225.374 5.49476 225.374 6.79961V17.9058C225.374 18.7107 226.086 19.275 226.802 19.1182C227.037 19.0669 227.268 19.2166 227.319 19.4526C227.37 19.6886 227.221 19.9215 226.987 19.9728C225.705 20.2533 224.506 19.2434 224.506 17.9058V6.79961C224.506 5.13114 225.555 3.64138 227.117 3.16718C227.346 3.09745 227.589 3.22835 227.658 3.45955Z" fill="#73325A"/>
<path fill-rule="evenodd" clip-rule="evenodd" d="M233.586 1.63917C233.659 1.86934 233.532 2.11516 233.303 2.18823C232.131 2.56278 231.304 3.73749 231.304 5.09458V16.5943C231.304 17.4335 232.027 18.0046 232.732 17.8504C232.967 17.7991 233.198 17.9489 233.249 18.1848C233.3 18.4208 233.151 18.6537 232.917 18.705C231.623 18.988 230.435 17.9414 230.435 16.5943V5.09458C230.435 3.39092 231.476 1.85467 233.04 1.35472C233.269 1.28165 233.513 1.409 233.586 1.63917Z" fill="#73325A"/>
<path d="M456.839 305.179C449.432 314.58 441.136 320.286 437.878 317.684C434.62 315.083 437.617 305.135 445.023 295.734C451.93 286.989 461.052 281.961 464.897 283.426L465.657 283.863C468.936 286.486 464.245 295.8 456.839 305.179Z" fill="#9A3B82"/>
<path d="M490.352 320.986L485.422 323.609C483.467 324.659 481.034 323.915 479.992 321.948L474.801 312.241L466.939 309.53C467.807 309.858 471.196 311.607 470.131 317.969L451.67 311.038L445.328 308.655L439.311 304.786C440.723 301.9 442.656 298.795 445.067 295.757C447.087 293.199 449.281 290.969 451.474 289.132L457.751 293.548L464.18 294.248L474.627 295.363C476.3 295.538 477.907 296.106 479.319 297.003L487.659 302.971C488.875 303.846 489.679 305.157 489.874 306.644L491.568 318.581C491.721 319.565 491.221 320.527 490.352 320.986Z" fill="#A0505A"/>
<path fill-rule="evenodd" clip-rule="evenodd" d="M477.858 301.296C477.997 301.099 478.268 301.053 478.464 301.193L485.696 306.374C485.696 306.374 485.696 306.374 485.696 306.374C486.838 307.188 487.594 308.454 487.807 309.857C487.807 309.857 487.807 309.857 487.807 309.857L489.285 319.503L489.286 319.509C489.416 320.536 488.919 321.548 487.989 322.03C487.776 322.14 487.514 322.056 487.404 321.841C487.294 321.626 487.378 321.363 487.592 321.252C488.181 320.947 488.508 320.301 488.424 319.625L486.948 309.989C486.77 308.812 486.137 307.76 485.194 307.088L477.96 301.906C477.765 301.766 477.719 301.493 477.858 301.296Z" fill="#73325A"/>
<path fill-rule="evenodd" clip-rule="evenodd" d="M473.382 303.024C473.521 302.827 473.792 302.781 473.987 302.921L481.219 308.102C481.219 308.102 481.219 308.102 481.22 308.102C482.361 308.917 483.118 310.182 483.331 311.585L484.808 321.231L484.809 321.237C484.94 322.264 484.442 323.277 483.512 323.758C483.299 323.868 483.037 323.784 482.928 323.569C482.818 323.354 482.902 323.091 483.115 322.98C483.704 322.675 484.032 322.029 483.948 321.353L482.472 311.717C482.293 310.54 481.66 309.488 480.717 308.816L480.716 308.815L473.484 303.634C473.288 303.494 473.243 303.221 473.382 303.024Z" fill="#73325A"/>
<path fill-rule="evenodd" clip-rule="evenodd" d="M461.271 307.575C461.348 307.346 461.594 307.224 461.822 307.301L467.077 309.094C467.305 309.171 467.426 309.42 467.349 309.648C467.272 309.877 467.026 310 466.799 309.922L461.543 308.129C461.316 308.052 461.194 307.804 461.271 307.575Z" fill="#73325A"/>
<path d="M464.18 294.248C462.421 297.593 459.858 301.397 456.861 305.201C455.145 307.366 453.407 309.333 451.67 311.039L445.328 308.656L439.311 304.786C440.723 301.9 442.656 298.795 445.067 295.757C447.087 293.199 449.281 290.969 451.474 289.132L457.751 293.548L464.18 294.248Z" fill="#73325A"/>
<path d="M274.524 114.647L320.982 135.395L337.554 184.192L303.888 159.968L288.185 140.664L274.524 114.647Z" fill="#FE5244"/>
<path d="M288.186 140.664C288.186 140.664 303.39 143.288 309.515 160.34L312.751 157.061C312.751 157.061 306.865 140.467 291.314 136.204L288.186 140.664Z" fill="#9A3B82"/>
<path d="M378.798 161.849C373.585 158.875 368.764 157.236 367.222 157.826C367.33 157.564 367.395 157.258 367.374 156.952C367.287 155.99 366.505 155.268 365.571 155.268C365.527 155.268 365.484 155.268 365.419 155.268C364.42 155.356 363.681 156.23 363.746 157.236C363.746 157.301 363.768 157.367 363.768 157.411L358.251 160.974C357.013 161.783 355.493 161.827 354.19 161.105C352.887 160.384 352.126 159.072 352.126 157.586V149.606C352.126 146.13 350.411 142.916 347.522 140.992C344.633 139.068 341.006 138.762 337.835 140.117L327.323 144.84L323.326 133.056L276.629 112.221C276.347 112.09 275.999 112.221 275.869 112.527C275.739 112.811 275.869 113.161 276.173 113.292L322.392 133.93L338.878 182.487C338.964 182.727 339.182 182.881 339.421 182.881C339.486 182.881 339.551 182.859 339.616 182.859C339.92 182.749 340.072 182.421 339.985 182.115L327.714 145.955L338.313 141.189C341.136 139.964 344.351 140.249 346.892 141.954C349.455 143.659 350.975 146.501 350.975 149.606V157.586C350.975 159.509 351.974 161.215 353.647 162.133C354.429 162.57 355.276 162.789 356.123 162.789C357.079 162.789 358.034 162.505 358.881 161.958L364.355 158.438C364.68 158.744 365.115 158.919 365.571 158.919C365.614 158.919 365.679 158.919 365.723 158.919C366.114 158.897 366.461 158.744 366.722 158.504C366.722 160.056 370.675 163.532 376.105 166.637C377.278 167.314 378.451 167.927 379.558 168.451C380.232 167.883 380.796 167.205 381.252 166.396C381.709 165.609 381.991 164.756 382.121 163.882C381.079 163.226 379.971 162.526 378.798 161.849ZM365.614 158.001C365.115 158.045 364.702 157.673 364.659 157.192C364.615 156.711 364.984 156.274 365.462 156.23C365.94 156.186 366.375 156.558 366.418 157.039C366.461 157.52 366.092 157.957 365.614 158.001Z" fill="#FFCF2D"/>
<path d="M285.167 169.413L277.131 214.406L304.519 193.155V165.106L285.167 169.413Z" fill="#A0505A"/>
<path d="M285.167 169.413L284.167 175.053L296.287 199.539L304.519 193.155V165.106L285.167 169.413Z" fill="#73325A"/>
<path d="M288.641 141.123C288.641 141.123 274.936 137.69 270.657 145.692C266.378 153.694 278.889 155.902 279.41 153.104C279.649 151.879 256.887 151.901 260.709 169.238C264.684 187.297 282.603 181.088 282.603 181.088L284.688 169.413L288.641 141.123Z" fill="white"/>
<path fill-rule="evenodd" clip-rule="evenodd" d="M288.746 140.698C288.746 140.698 288.746 140.698 288.641 141.122L288.746 140.698L289.126 140.793L285.117 169.481L282.986 181.417L282.745 181.5L282.603 181.087C282.745 181.5 282.744 181.5 282.744 181.501L282.743 181.501L282.74 181.502L282.729 181.506C282.719 181.509 282.705 181.514 282.687 181.52C282.651 181.532 282.598 181.549 282.529 181.57C282.392 181.613 282.193 181.672 281.938 181.741C281.43 181.878 280.701 182.053 279.815 182.206C278.045 182.511 275.633 182.728 273.087 182.367C270.538 182.006 267.84 181.063 265.523 179.037C263.203 177.009 261.296 173.923 260.286 169.332C259.309 164.901 260.023 161.523 261.691 158.989C263.35 156.467 265.918 154.831 268.56 153.802C269.525 153.426 270.505 153.129 271.461 152.898C270.739 152.34 270.131 151.644 269.751 150.799C269.104 149.36 269.156 147.577 270.275 145.484C272.53 141.267 277.241 140.113 281.239 139.969C283.253 139.897 285.127 140.079 286.495 140.278C287.18 140.378 287.74 140.482 288.13 140.562C288.325 140.602 288.478 140.635 288.583 140.659C288.635 140.671 288.675 140.681 288.703 140.687C288.716 140.69 288.727 140.693 288.734 140.695L288.743 140.697L288.745 140.698L288.746 140.698ZM272.489 153.565C271.313 153.805 270.08 154.147 268.873 154.617C266.332 155.608 263.941 157.152 262.415 159.472C260.897 161.779 260.2 164.906 261.134 169.143C262.111 173.581 263.935 176.491 266.093 178.377C268.253 180.266 270.78 181.157 273.208 181.501C275.638 181.845 277.954 181.639 279.668 181.344C280.524 181.197 281.226 181.028 281.713 180.896C281.926 180.839 282.097 180.788 282.222 180.75L284.259 169.343L288.155 141.46C288.096 141.447 288.03 141.434 287.958 141.419C287.581 141.342 287.038 141.241 286.371 141.144C285.036 140.949 283.216 140.773 281.269 140.843C277.345 140.984 273.064 142.114 271.04 145.899C270.02 147.807 270.031 149.301 270.543 150.438C270.954 151.352 271.711 152.091 272.637 152.644C273.867 152.41 275.027 152.282 276.031 152.233C277.068 152.181 277.951 152.213 278.579 152.3C278.887 152.344 279.16 152.404 279.362 152.487C279.461 152.528 279.577 152.587 279.671 152.679C279.772 152.779 279.881 152.956 279.837 153.185C279.738 153.714 279.36 154.079 278.903 154.308C278.447 154.535 277.868 154.655 277.244 154.687C275.992 154.753 274.444 154.474 273.056 153.846C272.865 153.759 272.675 153.666 272.489 153.565ZM274.033 153.3C274.761 153.199 275.449 153.137 276.073 153.106C277.076 153.057 277.902 153.089 278.459 153.167C278.636 153.191 278.775 153.219 278.88 153.247C278.806 153.343 278.69 153.437 278.516 153.524C278.204 153.68 277.754 153.785 277.199 153.814C276.27 153.862 275.127 153.695 274.033 153.3Z" fill="#9A3B82"/>
<path d="M304.3 167.009C304.3 167.009 283.841 193.856 301.824 205.268C316.246 214.407 319.96 201.53 316.094 199.759C311.902 197.835 302.28 234.127 331.906 234.017C361.596 233.908 352.518 196.589 337.553 184.214C330.407 178.312 306.559 161.805 306.559 161.805L304.3 167.009Z" fill="white"/>
<path fill-rule="evenodd" clip-rule="evenodd" d="M306.806 161.445L306.559 161.805C306.806 161.445 306.806 161.445 306.806 161.445L306.874 161.493C306.92 161.524 306.987 161.571 307.075 161.632C307.252 161.754 307.512 161.935 307.845 162.166C308.511 162.629 309.471 163.297 310.645 164.117C312.993 165.757 316.198 168.006 319.627 170.439C326.478 175.3 334.241 180.913 337.829 183.876C345.414 190.149 351.476 202.693 351.909 213.698C352.127 219.21 350.934 224.393 347.751 228.211C344.559 232.04 339.424 234.427 331.908 234.455C324.408 234.482 319.331 232.203 316.034 228.743C312.746 225.291 311.278 220.719 310.886 216.246C310.665 213.725 310.784 211.222 311.117 208.949C308.632 209.007 305.465 208.092 301.593 205.638L301.593 205.638C296.985 202.714 294.824 198.782 294.195 194.54C293.569 190.319 294.464 185.815 295.909 181.713C297.356 177.605 299.368 173.864 301.014 171.154C301.838 169.797 302.572 168.697 303.1 167.934C303.365 167.553 303.578 167.256 303.725 167.054C303.799 166.953 303.856 166.876 303.895 166.823C303.906 166.809 303.915 166.796 303.923 166.786L306.372 161.145L306.806 161.445ZM312.006 208.884C311.66 211.143 311.53 213.647 311.751 216.169C312.133 220.515 313.553 224.875 316.661 228.137C319.761 231.391 324.591 233.607 331.905 233.58C339.233 233.553 344.097 231.234 347.086 227.649C350.084 224.052 351.253 219.111 351.041 213.732C350.617 202.957 344.657 190.654 337.278 184.552C333.72 181.613 325.986 176.021 319.126 171.154C315.7 168.722 312.496 166.475 310.15 164.836C308.976 164.016 308.017 163.349 307.351 162.886C307.11 162.718 306.907 162.577 306.747 162.466L304.677 167.232L304.645 167.275L304.416 167.098C304.645 167.275 304.645 167.275 304.645 167.275L304.645 167.275L304.642 167.279L304.632 167.292C304.622 167.305 304.608 167.324 304.59 167.348C304.553 167.398 304.497 167.473 304.425 167.572C304.282 167.768 304.073 168.06 303.813 168.435C303.293 169.185 302.569 170.271 301.755 171.61C300.127 174.29 298.148 177.974 296.728 182.005C295.306 186.04 294.458 190.389 295.054 194.411C295.647 198.412 297.672 202.116 302.056 204.898C305.934 207.355 308.969 208.171 311.259 208.068C311.508 206.647 311.839 205.332 312.218 204.178C312.74 202.59 313.362 201.281 314.008 200.419C314.33 199.99 314.679 199.645 315.049 199.443C315.431 199.235 315.859 199.17 316.274 199.361C317.464 199.906 317.99 201.259 317.958 202.662C317.926 204.084 317.33 205.681 316.127 206.911C315.136 207.924 313.766 208.664 312.006 208.884ZM312.158 207.976C312.394 206.691 312.698 205.501 313.043 204.453C313.55 202.91 314.135 201.701 314.702 200.946C314.986 200.567 315.246 200.33 315.463 200.212C315.667 200.1 315.805 200.106 315.914 200.156L315.914 200.157C316.658 200.497 317.117 201.418 317.089 202.642C317.062 203.847 316.552 205.23 315.508 206.298C314.729 207.094 313.624 207.736 312.158 207.976Z" fill="#9A3B82"/>
<path d="M303.693 160.274L305.235 161.258C306.734 162.22 307.168 164.21 306.234 165.718L305.93 166.177C304.974 167.686 302.998 168.145 301.499 167.183L299.848 166.133C298.024 167.445 287.056 174.813 280.279 167.489C273.698 160.384 288.902 139.592 288.902 139.592C301.803 143.659 306.842 155.202 306.842 155.202L303.693 160.274Z" fill="#A0505A"/>
<path fill-rule="evenodd" clip-rule="evenodd" d="M284.26 144.162C284.343 143.936 284.594 143.82 284.818 143.905L284.667 144.315C284.818 143.905 284.819 143.905 284.819 143.905L284.819 143.905L284.82 143.905L284.824 143.907L284.834 143.911C284.842 143.914 284.854 143.919 284.869 143.925C284.899 143.937 284.941 143.954 284.993 143.977C285.098 144.023 285.245 144.092 285.42 144.184C285.767 144.367 286.23 144.647 286.685 145.032C287.59 145.801 288.51 147.036 288.313 148.78C288.136 150.35 287.264 152.323 286.537 153.966C286.512 154.023 286.487 154.08 286.462 154.136C286.083 154.994 285.752 155.752 285.561 156.346C285.465 156.644 285.413 156.874 285.401 157.041C285.393 157.153 285.405 157.2 285.409 157.212C285.731 157.56 286.111 157.771 286.418 157.896C286.572 157.958 286.704 157.997 286.796 158.021C286.841 158.032 286.877 158.04 286.899 158.044C286.91 158.046 286.918 158.048 286.923 158.049L286.926 158.049L286.925 158.049L286.925 158.049C286.925 158.049 286.926 158.049 286.926 158.049L286.926 158.049C286.927 158.049 286.927 158.049 286.926 158.049L286.926 158.049C287.163 158.086 287.326 158.308 287.29 158.546C287.255 158.785 287.034 158.949 286.797 158.914L286.861 158.481C286.797 158.914 286.797 158.914 286.796 158.914L286.796 158.914L286.795 158.914L286.794 158.913L286.789 158.913C286.786 158.912 286.781 158.911 286.776 158.91C286.765 158.909 286.75 158.906 286.732 158.902C286.695 158.895 286.645 158.884 286.583 158.868C286.46 158.837 286.289 158.786 286.093 158.707C285.702 158.548 285.196 158.27 284.76 157.794C284.541 157.554 284.516 157.232 284.534 156.977C284.554 156.707 284.631 156.398 284.735 156.076C284.943 155.43 285.295 154.626 285.668 153.781C285.682 153.75 285.695 153.719 285.709 153.689C286.462 151.984 287.288 150.114 287.45 148.681C287.601 147.343 286.913 146.37 286.125 145.701C285.732 145.368 285.326 145.121 285.017 144.958C284.863 144.877 284.734 144.817 284.646 144.779C284.601 144.759 284.567 144.745 284.545 144.736C284.534 144.731 284.526 144.728 284.521 144.726L284.516 144.724L284.516 144.724C284.515 144.724 284.515 144.724 284.515 144.724L284.515 144.724C284.515 144.724 284.515 144.724 284.515 144.724L284.515 144.724M284.26 144.162C284.176 144.388 284.291 144.64 284.515 144.724Z" fill="#73325A"/>
<path fill-rule="evenodd" clip-rule="evenodd" d="M283.796 160.34C283.584 160.722 283.585 160.722 283.585 160.722L283.585 160.722L283.586 160.723L283.589 160.724L283.597 160.729C283.603 160.732 283.612 160.737 283.624 160.744C283.648 160.756 283.681 160.773 283.724 160.795C283.811 160.838 283.936 160.897 284.096 160.966C284.417 161.103 284.88 161.278 285.459 161.435C286.616 161.747 288.242 161.986 290.118 161.69C290.355 161.653 290.517 161.429 290.48 161.191C290.443 160.952 290.221 160.789 289.984 160.826C288.255 161.099 286.753 160.879 285.684 160.59C285.15 160.446 284.725 160.285 284.436 160.161C284.292 160.099 284.182 160.047 284.109 160.011C284.073 159.993 284.046 159.979 284.029 159.97C284.02 159.965 284.014 159.962 284.011 159.96L284.007 159.958C284.007 159.958 284.007 159.958 284.007 159.958L284.007 159.958C283.798 159.841 283.533 159.916 283.416 160.127C283.3 160.338 283.375 160.604 283.584 160.722L283.796 160.34Z" fill="#73325A"/>
<path d="M295.153 155.965C295.461 155.153 295.356 154.358 294.919 154.19C294.482 154.023 293.878 154.545 293.57 155.358C293.263 156.17 293.368 156.964 293.805 157.132C294.242 157.3 294.846 156.777 295.153 155.965Z" fill="#73325A"/>
<path d="M285.126 151.334C285.383 150.657 285.291 149.993 284.921 149.851C284.551 149.709 284.043 150.143 283.787 150.82C283.531 151.497 283.623 152.161 283.992 152.303C284.362 152.444 284.87 152.011 285.126 151.334Z" fill="#73325A"/>
<path fill-rule="evenodd" clip-rule="evenodd" d="M305.153 163.769C304.4 163.287 303.409 163.51 302.929 164.269C302.8 164.473 302.532 164.533 302.329 164.403C302.127 164.273 302.067 164.003 302.196 163.799C302.932 162.635 304.46 162.289 305.619 163.031C305.821 163.161 305.881 163.431 305.752 163.635C305.624 163.839 305.355 163.899 305.153 163.769Z" fill="#73325A"/>
<path fill-rule="evenodd" clip-rule="evenodd" d="M294.129 150.081C294.191 149.848 294.43 149.71 294.661 149.773L294.548 150.195C294.661 149.773 294.662 149.773 294.662 149.773L294.662 149.774L294.663 149.774L294.666 149.775L294.675 149.777C294.683 149.779 294.693 149.782 294.705 149.786C294.729 149.794 294.763 149.804 294.805 149.819C294.89 149.848 295.009 149.893 295.155 149.956C295.447 150.083 295.846 150.285 296.29 150.592C297.178 151.207 298.242 152.24 298.964 153.913C299.06 154.134 298.959 154.392 298.739 154.488C298.519 154.584 298.263 154.483 298.168 154.261C297.521 152.764 296.576 151.851 295.798 151.313C295.408 151.043 295.059 150.867 294.811 150.759C294.687 150.705 294.589 150.669 294.524 150.646C294.491 150.635 294.467 150.627 294.451 150.623C294.444 150.62 294.438 150.619 294.436 150.618L294.433 150.617C294.202 150.554 294.066 150.314 294.129 150.081Z" fill="#73325A"/>
<path d="M298.501 144.883C298.501 144.883 295.613 154.524 303.888 161.105C308.753 164.975 309.035 160.318 309.035 160.318C309.035 160.318 308.406 150.851 298.501 144.883Z" fill="white"/>
<path fill-rule="evenodd" clip-rule="evenodd" d="M298.246 144.22L298.725 144.508C303.765 147.546 306.453 151.48 307.878 154.659C308.59 156.247 308.987 157.647 309.206 158.652C309.316 159.155 309.381 159.56 309.419 159.841C309.438 159.981 309.45 160.091 309.458 160.167C309.462 160.205 309.464 160.234 309.466 160.255C309.467 160.265 309.467 160.273 309.468 160.279L309.468 160.285L309.469 160.288L309.469 160.288C309.469 160.289 309.469 160.289 309.035 160.318C309.469 160.345 309.469 160.345 309.469 160.345L309.469 160.348L309.468 160.352C309.468 160.355 309.468 160.36 309.467 160.366C309.466 160.377 309.465 160.393 309.463 160.412C309.459 160.452 309.453 160.506 309.444 160.573C309.424 160.707 309.391 160.892 309.334 161.101C309.223 161.51 309.009 162.055 308.592 162.473C308.156 162.911 307.527 163.175 306.68 163.047C305.862 162.923 304.861 162.437 303.618 161.448C299.368 158.068 297.98 153.892 297.659 150.569C297.499 148.91 297.604 147.464 297.749 146.431C297.822 145.914 297.905 145.5 297.97 145.213C298.003 145.069 298.031 144.957 298.051 144.88C298.061 144.842 298.07 144.812 298.076 144.791C298.078 144.781 298.081 144.773 298.082 144.767L298.084 144.76L298.085 144.758L298.085 144.757C298.085 144.757 298.085 144.757 298.501 144.883L298.085 144.757L298.246 144.22ZM298.781 145.57C298.728 145.823 298.665 146.155 298.609 146.554C298.472 147.534 298.372 148.91 298.524 150.484C298.827 153.627 300.132 157.561 304.157 160.762C305.347 161.708 306.206 162.091 306.809 162.182C307.384 162.269 307.738 162.095 307.979 161.853C308.242 161.59 308.403 161.213 308.496 160.87C308.542 160.703 308.568 160.554 308.584 160.448C308.591 160.395 308.596 160.354 308.599 160.326C308.599 160.323 308.599 160.32 308.599 160.318C308.598 160.302 308.596 160.281 308.594 160.254C308.587 160.188 308.576 160.089 308.558 159.959C308.523 159.699 308.462 159.317 308.358 158.839C308.149 157.883 307.77 156.543 307.086 155.019C305.769 152.079 303.321 148.453 298.781 145.57ZM309.035 160.318L309.469 160.345L309.471 160.317L309.469 160.289L309.035 160.318Z" fill="#9A3B82"/>
</svg>
